<svg width="456" height="210" viewBox="0 0 456 210" fill="none" xmlns="http://www.w3.org/2000/svg">
<path d="M61.25 205H60.25V206H61.25V205ZM61.25 199.75L61.0891 198.763L60.25 198.9V199.75H61.25ZM84.25 196L84.4109 196.987L85.25 196.85V196H84.25ZM84.25 157H85.25V156H84.25V157ZM0 157H-1V158H0V157ZM0 151.75L-0.810643 151.164L-1 151.427V151.75H0ZM106 5V4H105.489L105.189 4.41446L106 5ZM111.75 5H112.75V4H111.75V5ZM111.75 145.25H110.75V146.25H111.75V145.25ZM134.75 145.25H135.75V144.25H134.75V145.25ZM134.75 157V158H135.75V157H134.75ZM111.75 157V156H110.75V157H111.75ZM111.75 196H110.75V196.85L111.589 196.987L111.75 196ZM134.75 199.75H135.75V198.9L134.911 198.763L134.75 199.75ZM134.75 205V206H135.75V205H134.75ZM12.25 145.25L11.4392 144.665L10.2949 146.25H12.25V145.25ZM84.25 145.25V146.25H85.25V145.25H84.25ZM84.25 45.5H85.25V42.406L83.4392 44.9147L84.25 45.5ZM62.25 205V199.75H60.25V205H62.25ZM61.4109 200.737L84.4109 196.987L84.0891 195.013L61.0891 198.763L61.4109 200.737ZM85.25 196V157H83.25V196H85.25ZM84.25 156H0V158H84.25V156ZM1 157V151.75H-1V157H1ZM0.810643 152.336L106.811 5.58554L105.189 4.41446L-0.810643 151.164L0.810643 152.336ZM106 6H111.75V4H106V6ZM110.75 5V145.25H112.75V5H110.75ZM111.75 146.25H134.75V144.25H111.75V146.25ZM133.75 145.25V157H135.75V145.25H133.75ZM134.75 156H111.75V158H134.75V156ZM110.75 157V196H112.75V157H110.75ZM111.589 196.987L134.589 200.737L134.911 198.763L111.911 195.013L111.589 196.987ZM133.75 199.75V205H135.75V199.75H133.75ZM134.75 204H61.25V206H134.75V204ZM12.25 146.25H84.25V144.25H12.25V146.25ZM85.25 145.25V45.5H83.25V145.25H85.25ZM83.4392 44.9147L11.4392 144.665L13.0608 145.835L85.0608 46.0853L83.4392 44.9147ZM195.24 198.25L195.826 197.44L195.24 198.25ZM169.99 163L169.055 163.354L169.056 163.358L169.99 163ZM169.99 47.25L170.924 47.6076L170.925 47.6043L169.99 47.25ZM195.24 11.75L194.654 10.9396V10.9396L195.24 11.75ZM271.24 11.75L271.826 10.9396L271.24 11.75ZM296.49 47.25L295.555 47.6043L295.556 47.6076L296.49 47.25ZM296.49 163L297.424 163.358L297.425 163.354L296.49 163ZM271.24 198.25L270.654 197.44L271.24 198.25ZM262.74 186L263.602 186.508L262.74 186ZM262.74 24L263.602 23.4925L262.74 24ZM203.74 186L202.876 186.502L202.879 186.508L203.74 186ZM233.24 209C218.932 209 206.474 205.139 195.826 197.44L194.654 199.06C205.673 207.028 218.549 211 233.24 211V209ZM195.826 197.44C185.186 189.746 176.872 178.174 170.924 162.642L169.056 163.358C175.108 179.16 183.628 191.087 194.654 199.06L195.826 197.44ZM170.925 162.646C164.98 146.957 161.99 127.752 161.99 105H159.99C159.99 127.915 163 147.376 169.055 163.354L170.925 162.646ZM161.99 105C161.99 82.2477 164.98 63.1271 170.924 47.6076L169.056 46.8923C163 62.7062 159.99 82.0857 159.99 105H161.99ZM170.925 47.6043C176.874 31.9053 185.189 20.252 195.826 12.5603L194.654 10.9396C183.625 18.9146 175.106 30.928 169.055 46.8956L170.925 47.6043ZM195.826 12.5603C206.474 4.86086 218.932 0.999987 233.24 0.999987V-1.00001C218.549 -1.00001 205.673 2.97245 194.654 10.9396L195.826 12.5603ZM233.24 0.999987C247.549 0.999987 260.006 4.86086 270.654 12.5603L271.826 10.9396C260.808 2.97245 247.932 -1.00001 233.24 -1.00001V0.999987ZM270.654 12.5603C281.292 20.252 289.606 31.9053 295.555 47.6043L297.425 46.8956C291.374 30.928 282.855 18.9146 271.826 10.9396L270.654 12.5603ZM295.556 47.6076C301.5 63.1271 304.49 82.2477 304.49 105H306.49C306.49 82.0857 303.48 62.7062 297.424 46.8923L295.556 47.6076ZM304.49 105C304.49 127.752 301.5 146.957 295.555 162.646L297.425 163.354C303.48 147.376 306.49 127.915 306.49 105H304.49ZM295.556 162.642C289.608 178.174 281.294 189.746 270.654 197.44L271.826 199.06C282.853 191.087 291.372 179.16 297.424 163.358L295.556 162.642ZM270.654 197.44C260.006 205.139 247.549 209 233.24 209V211C247.932 211 260.808 207.028 271.826 199.06L270.654 197.44ZM233.24 205.25C246.146 205.25 256.283 198.932 263.602 186.508L261.879 185.492C254.864 197.401 245.334 203.25 233.24 203.25V205.25ZM263.602 186.508C270.907 174.106 274.49 154.886 274.49 129H272.49C272.49 154.781 268.907 173.561 261.879 185.492L263.602 186.508ZM274.49 129V80.75H272.49V129H274.49ZM274.49 80.75C274.49 55.0296 270.906 35.8932 263.602 23.4925L261.879 24.5075C268.907 36.4401 272.49 55.137 272.49 80.75H274.49ZM263.602 23.4925C256.283 11.0681 246.146 4.74999 233.24 4.74999V6.74999C245.334 6.74999 254.864 12.5986 261.879 24.5075L263.602 23.4925ZM233.24 4.74999C220.334 4.74999 210.197 11.0681 202.879 23.4925L204.602 24.5075C211.617 12.5986 221.146 6.74999 233.24 6.74999V4.74999ZM202.879 23.4925C195.574 35.8932 191.99 55.0296 191.99 80.75H193.99C193.99 55.137 197.573 36.4401 204.602 24.5075L202.879 23.4925ZM191.99 80.75V129H193.99V80.75H191.99ZM191.99 129C191.99 154.722 195.575 173.938 202.876 186.502L204.605 185.498C197.572 173.395 193.99 154.611 193.99 129H191.99ZM202.879 186.508C210.197 198.932 220.334 205.25 233.24 205.25V203.25C221.146 203.25 211.617 197.401 204.602 185.492L202.879 186.508ZM381.562 205H380.562V206H381.562V205ZM381.562 199.75L381.402 198.763L380.562 198.9V199.75H381.562ZM404.562 196L404.723 196.987L405.562 196.85V196H404.562ZM404.562 157H405.562V156H404.562V157ZM320.312 157H319.312V158H320.312V157ZM320.312 151.75L319.502 151.164L319.312 151.427V151.75H320.312ZM426.312 5V4H425.801L425.502 4.41446L426.312 5ZM432.062 5H433.062V4H432.062V5ZM432.062 145.25H431.062V146.25H432.062V145.25ZM455.062 145.25H456.062V144.25H455.062V145.25ZM455.062 157V158H456.062V157H455.062ZM432.062 157V156H431.062V157H432.062ZM432.062 196H431.062V196.85L431.902 196.987L432.062 196ZM455.062 199.75H456.062V198.9L455.223 198.763L455.062 199.75ZM455.062 205V206H456.062V205H455.062ZM332.562 145.25L331.752 144.665L330.607 146.25H332.562V145.25ZM404.562 145.25V146.25H405.562V145.25H404.562ZM404.562 45.5H405.562V42.406L403.752 44.9147L404.562 45.5ZM382.562 205V199.75H380.562V205H382.562ZM381.723 200.737L404.723 196.987L404.402 195.013L381.402 198.763L381.723 200.737ZM405.562 196V157H403.562V196H405.562ZM404.562 156H320.312V158H404.562V156ZM321.312 157V151.75H319.312V157H321.312ZM321.123 152.336L427.123 5.58554L425.502 4.41446L319.502 151.164L321.123 152.336ZM426.312 6H432.062V4H426.312V6ZM431.062 5V145.25H433.062V5H431.062ZM432.062 146.25H455.062V144.25H432.062V146.25ZM454.062 145.25V157H456.062V145.25H454.062ZM455.062 156H432.062V158H455.062V156ZM431.062 157V196H433.062V157H431.062ZM431.902 196.987L454.902 200.737L455.223 198.763L432.223 195.013L431.902 196.987ZM454.062 199.75V205H456.062V199.75H454.062ZM455.062 204H381.562V206H455.062V204ZM332.562 146.25H404.562V144.25H332.562V146.25ZM405.562 145.25V45.5H403.562V145.25H405.562ZM403.752 44.9147L331.752 144.665L333.373 145.835L405.373 46.0853L403.752 44.9147Z" fill="#67727B"/>
</svg>
