<svg width="298" height="72" viewBox="0 0 298 72" fill="none" xmlns="http://www.w3.org/2000/svg">
<path d="M122.237 51.515C118.788 56.3523 113.936 59.4652 108.806 62.1249C95.946 68.789 82.0187 71.2588 67.7552 71.8726C50.8173 72.5887 34.3618 70.4112 19.1776 62.1395C13.3319 58.939 7.89546 55.0663 4.03731 49.4252C-1.0192 42.0304 -1.36994 34.431 3.23354 26.7294C8.9623 17.1571 17.4824 10.9753 27.6831 6.92712C36.4233 3.52117 45.5977 1.35671 54.9386 0.496883C55.5997 0.388186 56.25 0.221926 56.8822 0H75.8807C80.2649 0.701481 84.6492 1.27143 89.0335 2.13367C99.2634 4.15043 109.186 7.24864 117.926 13.2112C124.108 17.4201 128.857 22.7397 130.304 30.3829C131.634 37.4416 129.31 43.4188 124.736 48.6945C124.775 48.3475 124.864 48.0079 124.999 47.6861C131.035 38.2307 127.177 27.5039 120.702 21.1467C116.104 16.7781 110.671 13.383 104.729 11.1652C85.232 3.47141 63.9736 1.37594 43.3495 5.11497C31.3366 7.07327 20.1129 11.1652 10.5845 18.9546C1.05602 26.744 0.0914823 37.7923 7.66163 47.3208C12.3966 53.3126 18.6954 57.2438 25.5056 60.4735C39.161 66.5984 54.1067 69.2925 69.0413 68.3214C88.1566 67.4299 106.848 64.5801 122.237 51.515Z" fill="white"/>
<path d="M109.247 52.8168C98.0672 52.0715 87.6619 50.464 81.1586 39.5764V54.0444H76.1459V40.3948C70.461 49.0318 61.8386 51.3993 52.6171 52.5392C50.3519 52.8315 48.2328 55.8566 46.216 54.0006C43.8924 51.9108 41.3057 52.5392 38.9089 51.9546C33.4725 50.6832 28.2698 49.0318 24.0463 45.159C18.0253 39.7371 18.0253 32.2254 24.0463 26.8766C25.6893 25.3014 27.6125 24.0474 29.7166 23.1793C34.1009 21.7178 38.602 20.6656 43.074 19.5403C44.1262 19.2773 45.0031 19.5403 45.6461 18.0789C45.9968 17.319 48.3936 17.4797 50.235 17.1582V47.7019C57.2205 47.1758 63.5631 45.9628 68.6488 41.257C72.3608 37.8227 72.1416 33.7015 68.2835 30.3841C64.4253 27.0666 59.5149 25.649 54.6046 24.7722L52.8655 24.5091V19.6426C63.0954 20.3149 70.1979 24.0269 75.9413 32.1378V17.5236H80.9686V32.7223C87.545 21.5571 97.9795 19.8764 109.218 19.2627C109.291 20.3733 109.379 21.1333 109.379 21.8932C109.379 22.6531 109.379 23.2669 109.306 23.6177C104.85 24.3648 100.435 25.3404 96.0797 26.5405C93.2741 27.4978 90.6792 28.9863 88.4365 30.9248C84.8121 34.0084 84.9144 37.8811 88.3488 41.1547C92.5138 45.1736 97.848 46.5766 103.372 47.3804C105.257 47.6726 107.172 47.7896 109.218 47.9942L109.247 52.8168ZM45.2223 24.4215C38.6605 24.5822 31.7334 26.8328 27.8898 30.0187C23.4033 33.7307 23.3302 38.3488 27.8898 41.9439C32.9317 45.9482 38.9089 47.2196 45.2515 47.6434L45.2223 24.4215Z" fill="white"/>
<path d="M156.945 9.37196V30.4844H161.318V9.37196H156.945ZM166.928 19.9282C166.928 20.9335 166.676 21.7579 166.174 22.4013C165.671 23.0448 164.967 23.5072 164.062 23.7887C163.158 24.0702 162.092 24.211 160.865 24.211H157.427C156.201 24.211 155.135 24.0702 154.23 23.7887C153.325 23.5072 152.622 23.0448 152.119 22.4013C151.616 21.7579 151.365 20.9335 151.365 19.9282C151.365 18.9027 151.616 18.0783 152.119 17.455C152.622 16.8116 153.325 16.3491 154.23 16.0676C155.135 15.7861 156.201 15.6454 157.427 15.6454H160.865C162.092 15.6454 163.158 15.7861 164.062 16.0676C164.967 16.3491 165.671 16.8116 166.174 17.455C166.676 18.0783 166.928 18.9027 166.928 19.9282ZM171.301 19.9282C171.301 18.2191 170.869 16.7613 170.004 15.5549C169.16 14.3485 167.993 13.4235 166.505 12.7801C165.038 12.1166 163.379 11.7848 161.529 11.7848H156.764C154.914 11.7848 153.245 12.1166 151.757 12.7801C150.289 13.4235 149.123 14.3485 148.258 15.5549C147.414 16.7613 146.992 18.2191 146.992 19.9282C146.992 21.6172 147.414 23.0749 148.258 24.3015C149.123 25.5079 150.289 26.4429 151.757 27.1064C153.245 27.7498 154.914 28.0715 156.764 28.0715H161.529C163.379 28.0715 165.038 27.7498 166.505 27.1064C167.993 26.4429 169.16 25.5079 170.004 24.3015C170.869 23.0749 171.301 21.6172 171.301 19.9282ZM176.804 25.6888H187.964L187.451 22.2807H177.317L176.804 25.6888ZM182.324 16.2184L185.491 23.5474L185.43 24.6332L188.145 30.4844H193.031L182.324 8.13537L171.617 30.4844H176.473L179.247 24.4523L179.157 23.4871L182.324 16.2184ZM196.859 21.0743H202.982C203.706 21.0743 204.339 21.1849 204.882 21.406C205.425 21.6071 205.837 21.9188 206.119 22.341C206.42 22.7633 206.571 23.3062 206.571 23.9697C206.571 24.6131 206.42 25.1459 206.119 25.5682C205.837 25.9904 205.425 26.3122 204.882 26.5333C204.339 26.7344 203.706 26.8349 202.982 26.8349H196.859V30.4844H203.766C205.133 30.4844 206.35 30.2129 207.416 29.67C208.501 29.1271 209.356 28.3631 209.979 27.3778C210.623 26.3926 210.944 25.2565 210.944 23.9697C210.944 22.6627 210.623 21.5267 209.979 20.5615C209.356 19.5763 208.501 18.8223 207.416 18.2995C206.35 17.7566 205.133 17.4852 203.766 17.4852H196.859V21.0743ZM195.442 9.37196V30.4844H199.815V13.0214H209.346V9.37196H195.442ZM214.437 9.37196V30.4844H218.75V9.37196H214.437ZM217.061 13.0214H221.253C222.399 13.0214 223.304 13.2828 223.967 13.8056C224.631 14.3082 224.963 15.0723 224.963 16.0978C224.963 17.1031 224.631 17.8672 223.967 18.39C223.304 18.9128 222.399 19.1742 221.253 19.1742H217.061V22.8236H221.253C222.922 22.8236 224.339 22.5521 225.505 22.0092C226.692 21.4664 227.597 20.6922 228.22 19.6869C228.843 18.6614 229.155 17.4651 229.155 16.0978C229.155 14.7104 228.843 13.514 228.22 12.5087C227.597 11.5033 226.692 10.7292 225.505 10.1863C224.339 9.6434 222.922 9.37196 221.253 9.37196H217.061V13.0214ZM251.523 13.9262L251.674 8.31634L232.642 25.9301L232.492 31.54L251.523 13.9262ZM236.654 9.37196H232.492V31.54L236.654 27.0461V9.37196ZM251.674 8.31634L247.512 12.9309V30.4844H251.674V8.31634ZM256.261 9.37196V30.4844H260.694V9.37196H256.261ZM268.204 9.37196L259.428 19.3853L268.536 30.4844H273.784L264.585 19.2646L273.332 9.37196H268.204ZM279.038 25.6888H290.198L289.685 22.2807H279.551L279.038 25.6888ZM284.558 16.2184L287.724 23.5474L287.664 24.6332L290.379 30.4844H295.265L284.558 8.13537L273.851 30.4844H278.706L281.481 24.4523L281.391 23.4871L284.558 16.2184ZM151.365 39.372H146.268L155.135 49.2646L145.815 60.4844H150.912L160.172 49.325L151.365 39.372ZM159.116 39.372V60.4844H163.55V39.372H159.116ZM170.999 39.372L162.494 49.325L171.452 60.4844H176.7L167.38 49.2646L176.247 39.372H170.999ZM181.959 55.6888H193.118L192.605 52.2807H182.472L181.959 55.6888ZM187.478 46.2184L190.645 53.5474L190.585 54.6332L193.299 60.4844H198.185L187.478 38.1354L176.771 60.4844H181.627L184.402 54.4523L184.311 53.4871L187.478 46.2184ZM217.938 39.372H201.561V52.0997C201.561 52.8035 201.491 53.4469 201.35 54.03C201.209 54.6131 201.008 55.1158 200.747 55.538C200.486 55.9603 200.164 56.282 199.782 56.5032C199.4 56.7244 198.967 56.8349 198.485 56.8349V60.4844C200.194 60.4844 201.591 60.1526 202.677 59.4891C203.763 58.8255 204.557 57.8705 205.06 56.6238C205.583 55.3571 205.844 53.839 205.844 52.0696V43.2627H213.565V60.4844H217.938V39.372ZM224.072 51.1949H233.15V47.3042H224.072V51.1949ZM222.654 39.372V60.4844H226.967V39.372H222.654ZM234.93 49.9282C234.93 48.581 235.201 47.3846 235.744 46.3391C236.307 45.2935 237.081 44.4691 238.066 43.8659C239.072 43.2627 240.218 42.9611 241.505 42.9611C242.852 42.9611 244.008 43.2627 244.973 43.8659C245.958 44.4691 246.722 45.2935 247.265 46.3391C247.828 47.3846 248.11 48.581 248.11 49.9282C248.11 51.2753 247.828 52.4717 247.265 53.5173C246.702 54.5628 245.928 55.3872 244.943 55.9904C243.958 56.5937 242.811 56.8953 241.505 56.8953C240.218 56.8953 239.072 56.5937 238.066 55.9904C237.081 55.3872 236.307 54.5628 235.744 53.5173C235.201 52.4717 234.93 51.2753 234.93 49.9282ZM230.345 49.9282C230.345 51.5166 230.617 52.9945 231.159 54.3618C231.722 55.7089 232.507 56.8852 233.512 57.8906C234.517 58.8959 235.694 59.6801 237.041 60.2431C238.408 60.786 239.896 61.0574 241.505 61.0574C243.133 61.0574 244.621 60.786 245.968 60.2431C247.336 59.6801 248.522 58.8959 249.527 57.8906C250.533 56.8852 251.307 55.7089 251.85 54.3618C252.392 52.9945 252.664 51.5166 252.664 49.9282C252.664 48.3196 252.382 46.8518 251.819 45.5247C251.277 44.1775 250.502 43.0113 249.497 42.0261C248.492 41.0408 247.305 40.2868 245.938 39.764C244.591 39.2212 243.113 38.9497 241.505 38.9497C239.936 38.9497 238.468 39.2212 237.101 39.764C235.754 40.2868 234.568 41.0408 233.542 42.0261C232.537 43.0113 231.753 44.1775 231.19 45.5247C230.627 46.8518 230.345 48.3196 230.345 49.9282ZM262.75 50.1996C264.017 50.1996 265.193 50.079 266.279 49.8377C267.365 49.5964 268.31 49.2445 269.114 48.7821C269.918 48.3196 270.552 47.7566 271.014 47.0931C271.477 46.4094 271.708 45.6353 271.708 44.7707C271.708 43.705 271.406 42.7399 270.803 41.8753C270.2 41.0107 269.325 40.317 268.179 39.7942C267.053 39.2714 265.656 39.01 263.987 39.01C262.358 39.01 260.961 39.2815 259.795 39.8244C258.628 40.3673 257.734 41.1112 257.11 42.0563C256.507 42.9812 256.205 44.0469 256.205 45.2533H260.217C260.217 44.7305 260.368 44.268 260.669 43.8659C260.991 43.4436 261.433 43.1219 261.996 42.9007C262.559 42.6595 263.223 42.5388 263.987 42.5388C264.731 42.5388 265.354 42.6494 265.857 42.8706C266.38 43.0918 266.762 43.4034 267.003 43.8056C267.264 44.1876 267.395 44.64 267.395 45.1628C267.395 45.7057 267.214 46.2084 266.852 46.6708C266.51 47.1132 265.998 47.4651 265.314 47.7264C264.63 47.9878 263.776 48.1185 262.75 48.1185V50.1996ZM264.047 60.9066C265.837 60.9066 267.345 60.6553 268.571 60.1526C269.818 59.6298 270.753 58.906 271.376 57.981C272 57.0561 272.311 55.9904 272.311 54.784C272.311 53.3564 271.889 52.2103 271.044 51.3457C270.22 50.461 269.084 49.8176 267.636 49.4154C266.209 48.9932 264.58 48.7821 262.75 48.7821V51.0743C263.896 51.0743 264.862 51.205 265.646 51.4664C266.43 51.7277 267.013 52.1098 267.395 52.6125C267.797 53.095 267.998 53.6681 267.998 54.3316C267.998 55.3169 267.646 56.0709 266.943 56.5937C266.239 57.0963 265.234 57.3477 263.927 57.3477C263.062 57.3477 262.308 57.227 261.665 56.9857C261.041 56.7244 260.549 56.3524 260.187 55.8698C259.825 55.3872 259.624 54.8041 259.583 54.1205H255.301C255.301 55.0253 255.482 55.8899 255.844 56.7143C256.205 57.5186 256.738 58.2424 257.442 58.8859C258.166 59.5092 259.071 60.0018 260.156 60.3637C261.262 60.7257 262.559 60.9066 264.047 60.9066ZM294.673 43.9262L294.823 38.3163L275.792 55.9301L275.641 61.54L294.673 43.9262ZM279.804 39.372H275.641V61.54L279.804 57.0461V39.372ZM294.823 38.3163L290.661 42.9309V60.4844H294.823V38.3163Z" fill="white"/>
</svg>
