<svg width="222" height="56" viewBox="0 0 222 56" fill="none" xmlns="http://www.w3.org/2000/svg">
<path d="M92.6066 40.0141C89.9937 43.6788 86.3179 46.0371 82.4317 48.0521C72.6886 53.1008 62.1373 54.9719 51.3313 55.437C38.4992 55.9795 26.0324 54.3298 14.5289 48.0632C10.1003 45.6385 5.98159 42.7045 3.05866 38.4308C-0.772147 32.8285 -1.03786 27.0713 2.44972 21.2365C6.78983 13.9845 13.2446 9.30117 20.9727 6.23431C27.5943 3.65396 34.5448 2.01417 41.6214 1.36277C42.1223 1.28042 42.615 1.15446 43.0939 0.986328H57.4872C60.8087 1.51777 64.1302 1.94957 67.4517 2.6028C75.2019 4.13069 82.7196 6.47789 89.3404 10.9951C94.0238 14.1838 97.6221 18.2139 98.7182 24.0044C99.7257 29.352 97.9653 33.8804 94.4999 37.8772C94.5294 37.6144 94.5966 37.3571 94.6992 37.1133C99.2718 29.9499 96.3488 21.8233 91.4441 17.0071C87.9606 13.6974 83.8445 11.1253 79.3427 9.44511C64.5717 3.61627 48.4663 2.02874 32.8415 4.86142C23.7406 6.34503 15.2375 9.44511 8.01879 15.3463C0.800039 21.2475 0.0693069 29.6177 5.80445 36.8365C9.39168 41.3759 14.1636 44.3542 19.323 46.801C29.6684 51.4412 40.9912 53.4823 52.3056 52.7465C66.7874 52.0712 80.9481 49.9122 92.6066 40.0141Z" fill="#2D343C"/>
<path d="M82.7646 40.9996C74.2947 40.4349 66.4117 39.217 61.4848 30.9686V41.9296H57.6872V31.5886C53.3803 38.132 46.848 39.9256 39.8617 40.7892C38.1456 41.0106 36.5402 43.3025 35.0123 41.8964C33.2519 40.3131 31.2922 40.7892 29.4765 40.3464C25.3578 39.3831 21.4163 38.132 18.2166 35.198C13.655 31.0904 13.655 25.3995 18.2166 21.3473C19.4613 20.1539 20.9183 19.2039 22.5124 18.5462C25.8339 17.439 29.244 16.6418 32.6319 15.7893C33.4291 15.59 34.0934 15.7893 34.5805 14.6821C34.8463 14.1064 36.662 14.2282 38.0571 13.9846V37.1245C43.3493 36.7259 48.1544 35.8069 52.0074 32.2419C54.8196 29.64 54.6535 26.5178 51.7306 24.0045C48.8077 21.4912 45.0876 20.4173 41.3675 19.753L40.05 19.5537V15.8668C47.8002 16.3761 53.181 19.1883 57.5322 25.3331V14.2614H61.3409V25.776C66.3231 17.3172 74.2283 16.044 82.7425 15.5789C82.7978 16.4204 82.8643 16.9961 82.8643 17.5718C82.8643 18.1476 82.8643 18.6126 82.8089 18.8783C79.4332 19.4443 76.0888 20.1834 72.789 21.0927C70.6635 21.8179 68.6976 22.9456 66.9985 24.4142C64.2527 26.7503 64.3302 29.6843 66.9321 32.1644C70.0875 35.2091 74.1287 36.272 78.3138 36.8809C79.742 37.1023 81.1924 37.1909 82.7425 37.3459L82.7646 40.9996ZM34.2595 19.4873C29.2883 19.609 24.0403 21.3141 21.1284 23.7277C17.7294 26.5399 17.6741 30.0386 21.1284 32.7622C24.9482 35.7959 29.4765 36.7591 34.2816 37.0802L34.2595 19.4873Z" fill="#2D343C"/>
<path d="M118.48 10.6V26H121.67V10.6H118.48ZM125.762 18.3C125.762 19.0333 125.579 19.6347 125.212 20.104C124.845 20.5733 124.332 20.9107 123.672 21.116C123.012 21.3213 122.235 21.424 121.34 21.424H118.832C117.937 21.424 117.16 21.3213 116.5 21.116C115.84 20.9107 115.327 20.5733 114.96 20.104C114.593 19.6347 114.41 19.0333 114.41 18.3C114.41 17.552 114.593 16.9507 114.96 16.496C115.327 16.0267 115.84 15.6893 116.5 15.484C117.16 15.2787 117.937 15.176 118.832 15.176H121.34C122.235 15.176 123.012 15.2787 123.672 15.484C124.332 15.6893 124.845 16.0267 125.212 16.496C125.579 16.9507 125.762 17.552 125.762 18.3ZM128.952 18.3C128.952 17.0533 128.637 15.99 128.006 15.11C127.39 14.23 126.539 13.5553 125.454 13.086C124.383 12.602 123.173 12.36 121.824 12.36H118.348C116.999 12.36 115.781 12.602 114.696 13.086C113.625 13.5553 112.775 14.23 112.144 15.11C111.528 15.99 111.22 17.0533 111.22 18.3C111.22 19.532 111.528 20.5953 112.144 21.49C112.775 22.37 113.625 23.052 114.696 23.536C115.781 24.0053 116.999 24.24 118.348 24.24H121.824C123.173 24.24 124.383 24.0053 125.454 23.536C126.539 23.052 127.39 22.37 128.006 21.49C128.637 20.5953 128.952 19.532 128.952 18.3ZM132.966 22.502H141.106L140.732 20.016H133.34L132.966 22.502ZM136.992 15.594L139.302 20.94L139.258 21.732L141.238 26H144.802L136.992 9.698L129.182 26H132.724L134.748 21.6L134.682 20.896L136.992 15.594ZM147.595 19.136H152.061C152.589 19.136 153.051 19.2167 153.447 19.378C153.843 19.5247 154.143 19.752 154.349 20.06C154.569 20.368 154.679 20.764 154.679 21.248C154.679 21.7173 154.569 22.106 154.349 22.414C154.143 22.722 153.843 22.9567 153.447 23.118C153.051 23.2647 152.589 23.338 152.061 23.338H147.595V26H152.633C153.63 26 154.517 25.802 155.295 25.406C156.087 25.01 156.71 24.4527 157.165 23.734C157.634 23.0153 157.869 22.1867 157.869 21.248C157.869 20.2947 157.634 19.466 157.165 18.762C156.71 18.0433 156.087 17.4933 155.295 17.112C154.517 16.716 153.63 16.518 152.633 16.518H147.595V19.136ZM146.561 10.6V26H149.751V13.262H156.703V10.6H146.561ZM160.416 10.6V26H163.562V10.6H160.416ZM162.33 13.262H165.388C166.224 13.262 166.884 13.4527 167.368 13.834C167.852 14.2007 168.094 14.758 168.094 15.506C168.094 16.2393 167.852 16.7967 167.368 17.178C166.884 17.5593 166.224 17.75 165.388 17.75H162.33V20.412H165.388C166.605 20.412 167.639 20.214 168.49 19.818C169.355 19.422 170.015 18.8573 170.47 18.124C170.925 17.376 171.152 16.5033 171.152 15.506C171.152 14.494 170.925 13.6213 170.47 12.888C170.015 12.1547 169.355 11.59 168.49 11.194C167.639 10.798 166.605 10.6 165.388 10.6H162.33V13.262ZM187.468 13.922L187.578 9.83L173.696 22.678L173.586 26.77L187.468 13.922ZM176.622 10.6H173.586V26.77L176.622 23.492V10.6ZM187.578 9.83L184.542 13.196V26H187.578V9.83ZM190.924 10.6V26H194.158V10.6H190.924ZM199.636 10.6L193.234 17.904L199.878 26H203.706L196.996 17.816L203.376 10.6H199.636ZM207.538 22.502H215.678L215.304 20.016H207.912L207.538 22.502ZM211.564 15.594L213.874 20.94L213.83 21.732L215.81 26H219.374L211.564 9.698L203.754 26H207.296L209.32 21.6L209.254 20.896L211.564 15.594ZM114.41 32.6H110.692L117.16 39.816L110.362 48H114.08L120.834 39.86L114.41 32.6ZM120.064 32.6V48H123.298V32.6H120.064ZM128.732 32.6L122.528 39.86L129.062 48H132.89L126.092 39.816L132.56 32.6H128.732ZM136.726 44.502H144.866L144.492 42.016H137.1L136.726 44.502ZM140.752 37.594L143.062 42.94L143.018 43.732L144.998 48H148.562L140.752 31.698L132.942 48H136.484L138.508 43.6L138.442 42.896L140.752 37.594ZM162.971 32.6H151.025V41.884C151.025 42.3973 150.973 42.8667 150.871 43.292C150.768 43.7173 150.621 44.084 150.431 44.392C150.24 44.7 150.005 44.9347 149.727 45.096C149.448 45.2573 149.133 45.338 148.781 45.338V48C150.027 48 151.047 47.758 151.839 47.274C152.631 46.79 153.21 46.0933 153.577 45.184C153.958 44.26 154.149 43.1527 154.149 41.862V35.438H159.781V48H162.971V32.6ZM167.444 41.224H174.066V38.386H167.444V41.224ZM166.41 32.6V48H169.556V32.6H166.41ZM175.364 40.3C175.364 39.3173 175.562 38.4447 175.958 37.682C176.369 36.9193 176.934 36.318 177.652 35.878C178.386 35.438 179.222 35.218 180.16 35.218C181.143 35.218 181.986 35.438 182.69 35.878C183.409 36.318 183.966 36.9193 184.362 37.682C184.773 38.4447 184.978 39.3173 184.978 40.3C184.978 41.2827 184.773 42.1553 184.362 42.918C183.952 43.6807 183.387 44.282 182.668 44.722C181.95 45.162 181.114 45.382 180.16 45.382C179.222 45.382 178.386 45.162 177.652 44.722C176.934 44.282 176.369 43.6807 175.958 42.918C175.562 42.1553 175.364 41.2827 175.364 40.3ZM172.02 40.3C172.02 41.4587 172.218 42.5367 172.614 43.534C173.025 44.5167 173.597 45.3747 174.33 46.108C175.064 46.8413 175.922 47.4133 176.904 47.824C177.902 48.22 178.987 48.418 180.16 48.418C181.348 48.418 182.434 48.22 183.416 47.824C184.414 47.4133 185.279 46.8413 186.012 46.108C186.746 45.3747 187.31 44.5167 187.706 43.534C188.102 42.5367 188.3 41.4587 188.3 40.3C188.3 39.1267 188.095 38.056 187.684 37.088C187.288 36.1053 186.724 35.2547 185.99 34.536C185.257 33.8173 184.392 33.2673 183.394 32.886C182.412 32.49 181.334 32.292 180.16 32.292C179.016 32.292 177.946 32.49 176.948 32.886C175.966 33.2673 175.1 33.8173 174.352 34.536C173.619 35.2547 173.047 36.1053 172.636 37.088C172.226 38.056 172.02 39.1267 172.02 40.3ZM195.658 40.498C196.582 40.498 197.44 40.41 198.232 40.234C199.024 40.058 199.713 39.8013 200.3 39.464C200.886 39.1267 201.348 38.716 201.686 38.232C202.023 37.7333 202.192 37.1687 202.192 36.538C202.192 35.7607 201.972 35.0567 201.532 34.426C201.092 33.7953 200.454 33.2893 199.618 32.908C198.796 32.5267 197.777 32.336 196.56 32.336C195.372 32.336 194.352 32.534 193.502 32.93C192.651 33.326 191.998 33.8687 191.544 34.558C191.104 35.2327 190.884 36.01 190.884 36.89H193.81C193.81 36.5087 193.92 36.1713 194.14 35.878C194.374 35.57 194.697 35.3353 195.108 35.174C195.518 34.998 196.002 34.91 196.56 34.91C197.102 34.91 197.557 34.9907 197.924 35.152C198.305 35.3133 198.584 35.5407 198.76 35.834C198.95 36.1127 199.046 36.4427 199.046 36.824C199.046 37.22 198.914 37.5867 198.65 37.924C198.4 38.2467 198.026 38.5033 197.528 38.694C197.029 38.8847 196.406 38.98 195.658 38.98V40.498ZM196.604 48.308C197.909 48.308 199.009 48.1247 199.904 47.758C200.813 47.3767 201.495 46.8487 201.95 46.174C202.404 45.4993 202.632 44.722 202.632 43.842C202.632 42.8007 202.324 41.9647 201.708 41.334C201.106 40.6887 200.278 40.2193 199.222 39.926C198.18 39.618 196.992 39.464 195.658 39.464V41.136C196.494 41.136 197.198 41.2313 197.77 41.422C198.342 41.6127 198.767 41.8913 199.046 42.258C199.339 42.61 199.486 43.028 199.486 43.512C199.486 44.2307 199.229 44.7807 198.716 45.162C198.202 45.5287 197.469 45.712 196.516 45.712C195.885 45.712 195.335 45.624 194.866 45.448C194.411 45.2573 194.052 44.986 193.788 44.634C193.524 44.282 193.377 43.8567 193.348 43.358H190.224C190.224 44.018 190.356 44.6487 190.62 45.25C190.884 45.8367 191.272 46.3647 191.786 46.834C192.314 47.2887 192.974 47.648 193.766 47.912C194.572 48.176 195.518 48.308 196.604 48.308ZM218.943 35.922L219.053 31.83L205.171 44.678L205.061 48.77L218.943 35.922ZM208.097 32.6H205.061V48.77L208.097 45.492V32.6ZM219.053 31.83L216.017 35.196V48H219.053V31.83Z" fill="#2D343C"/>
</svg>
