<svg width="77" height="77" viewBox="0 0 77 77" fill="none" xmlns="http://www.w3.org/2000/svg">
<path d="M64.0787 66.8645L64.4278 64.7716C64.493 64.3806 64.6775 64.0192 64.956 63.737C65.8906 62.79 67.4814 63.0554 68.0581 64.2544C68.2299 64.6117 68.2872 65.0134 68.2219 65.4045L67.8729 67.4974L64.0787 66.8645Z" stroke="#2D343C" stroke-width="2"/>
<path d="M74.7344 10.1074L67 61" stroke="#2D343C" stroke-width="2" stroke-dasharray="2 2"/>
<path d="M10.2833 7.2069H18.3646H68.8725M10.2833 7.2069V1M10.2833 7.2069V5.82143H6.24267V2.07143H10.2833V1M10.2833 7.2069H13.3138L2 76H57.5588L68.8725 7.2069M10.2833 1H18.3646H71.903M71.903 1V4.10345V7.2069M71.903 1V2.07143H75.9437V4.10345V5.82143H71.903V7.2069M71.903 7.2069H68.8725" stroke="#2D343C" stroke-width="2"/>
</svg>
