<svg width="50" height="50" viewBox="0 0 50 50" fill="none" xmlns="http://www.w3.org/2000/svg">
<path d="M2 45.5006V15.7062V6.88257C2 5.778 2.89543 4.88257 4 4.88257H46C47.1046 4.88257 48 5.778 48 6.88257V45.5006C48 46.6051 47.1046 47.5006 46 47.5006H4C2.89543 47.5006 2 46.6051 2 45.5006Z" stroke="#2D343C" stroke-width="2"/>
<path d="M2 12.3236H48M38.9394 7.58829V1.5M11.7576 7.58829V1.5" stroke="#2D343C" stroke-width="2" stroke-linecap="round"/>
<rect x="9.28657" y="20.1031" width="2.15239" height="2.02943" fill="#C4C4C4" stroke="#2D343C" stroke-width="2.02943"/>
<rect x="9.28657" y="29.5739" width="2.15239" height="2.02943" fill="#C4C4C4" stroke="#2D343C" stroke-width="2.02943"/>
<rect x="9.28657" y="39.0439" width="2.15239" height="2.02943" fill="#C4C4C4" stroke="#2D343C" stroke-width="2.02943"/>
<rect x="19.047" y="20.1031" width="2.15239" height="2.02943" fill="#C4C4C4" stroke="#2D343C" stroke-width="2.02943"/>
<rect x="19.047" y="29.5739" width="2.15239" height="2.02943" fill="#C4C4C4" stroke="#2D343C" stroke-width="2.02943"/>
<rect x="19.047" y="39.0439" width="2.15239" height="2.02943" fill="#C4C4C4" stroke="#2D343C" stroke-width="2.02943"/>
<rect x="28.8018" y="20.1031" width="2.15239" height="2.02943" fill="#C4C4C4" stroke="#2D343C" stroke-width="2.02943"/>
<rect x="28.8018" y="29.5739" width="2.15239" height="2.02943" fill="#C4C4C4" stroke="#2D343C" stroke-width="2.02943"/>
<rect x="28.8018" y="39.0439" width="2.15239" height="2.02943" fill="#C4C4C4" stroke="#2D343C" stroke-width="2.02943"/>
<rect x="38.5584" y="20.1031" width="2.15239" height="2.02943" fill="#C4C4C4" stroke="#2D343C" stroke-width="2.02943"/>
<rect x="38.5584" y="29.5739" width="2.15239" height="2.02943" fill="#C4C4C4" stroke="#2D343C" stroke-width="2.02943"/>
<rect x="38.5584" y="39.0439" width="2.15239" height="2.02943" fill="#C4C4C4" stroke="#2D343C" stroke-width="2.02943"/>
</svg>
