<svg width="30" height="62" viewBox="0 0 30 62" fill="none" xmlns="http://www.w3.org/2000/svg">
<rect x="1" y="33" width="28" height="28" rx="4" stroke="#2D343C" stroke-width="2"/>
<path d="M10.1154 47.3846C10.0385 47.3077 10 47.1923 10 47.1153C10 47.0384 10.0385 46.923 10.1154 46.8461L10.6538 46.3077C10.8077 46.1538 11.0385 46.1538 11.1923 46.3077L11.2308 46.3461L13.3462 48.6153C13.4231 48.6923 13.5385 48.6923 13.6154 48.6153L18.7692 43.2692H18.8077C18.9615 43.1153 19.1923 43.1153 19.3462 43.2692L19.8846 43.8077C20.0385 43.9615 20.0385 44.1923 19.8846 44.3461L13.7308 50.7307C13.6538 50.8077 13.5769 50.8461 13.4615 50.8461C13.3462 50.8461 13.2692 50.8077 13.1923 50.7307L10.1923 47.5L10.1154 47.3846Z" fill="white"/>
</svg>
