<svg width="30" height="30" viewBox="0 0 30 30" fill="none" xmlns="http://www.w3.org/2000/svg">
<path d="M10.1154 15.3846C10.0385 15.3077 10 15.1923 10 15.1153C10 15.0384 10.0385 14.923 10.1154 14.8461L10.6538 14.3077C10.8077 14.1538 11.0385 14.1538 11.1923 14.3077L11.2308 14.3461L13.3462 16.6153C13.4231 16.6923 13.5385 16.6923 13.6154 16.6153L18.7692 11.2692H18.8077V11.2692C18.9615 11.1153 19.1923 11.1153 19.3462 11.2692L19.8846 11.8077C20.0385 11.9615 20.0385 12.1923 19.8846 12.3461L13.7308 18.7307C13.6538 18.8077 13.5769 18.8461 13.4615 18.8461C13.3462 18.8461 13.2692 18.8077 13.1923 18.7307L10.1923 15.5L10.1154 15.3846V15.3846Z" fill="white"/>
</svg>
