<svg width="127" height="46" viewBox="0 0 127 46" fill="none" xmlns="http://www.w3.org/2000/svg">
<g opacity="0.93">
<path fill-rule="evenodd" clip-rule="evenodd" d="M54.2765 25.1444C55.5499 23.9864 56.1838 22.4926 56.1838 20.6576C56.1838 18.8394 55.5499 17.3513 54.2765 16.1876C53.0031 15.0296 51.3675 14.4478 49.3697 14.4478H44.9609V26.8563H49.3697C51.3788 26.8619 53.0145 26.2913 54.2765 25.1444ZM49.1943 16.2436C50.762 16.2436 51.9844 16.6408 52.8503 17.4296C53.7332 18.2352 54.169 19.3094 54.169 20.6576C54.169 22.0059 53.7276 23.08 52.8503 23.8857C51.9844 24.6801 50.762 25.0717 49.1943 25.0717H46.9305V16.2436H49.1943ZM68.6404 26.1011V24.1318C67.6896 24.8871 66.5011 25.2675 65.0693 25.2675C63.7223 25.2675 62.613 24.8367 61.7358 23.9752C60.8529 23.1024 60.4171 21.9947 60.4171 20.6576C60.4171 19.3206 60.8529 18.224 61.7188 17.3625C62.6017 16.4898 63.694 16.0534 65.0013 16.0534C66.1955 16.0422 67.3727 16.3835 68.3744 17.0268V15.0576C67.384 14.5037 66.2578 14.224 64.9844 14.224C63.0828 14.224 61.5094 14.8338 60.2756 16.0478C59.0249 17.2506 58.4023 18.7891 58.4023 20.6576C58.4023 22.5262 59.0249 24.0647 60.2756 25.2843C61.549 26.4871 63.1167 27.0913 64.9844 27.0913C66.3766 27.0913 67.5934 26.7612 68.6404 26.1011ZM73.0096 17.4296L76.4902 22.1122H77.6334L81.114 17.4296V26.8619H83.0779V14.4534H81.114L77.1014 20.0367L73.0492 14.4534H71.0514V26.8619H73.0152V17.4296H73.0096ZM86.7679 25.8157C87.7187 26.6661 88.8676 27.0913 90.2089 27.0913C91.5502 27.0913 92.6312 26.806 93.4405 26.2409V24.6297C92.5916 25.1388 91.6181 25.4129 90.622 25.4074C89.7165 25.4074 88.9695 25.2004 88.3809 24.7864C87.7923 24.3724 87.4357 23.8017 87.3169 23.0689H94.0234V22.571C94.0234 20.8199 93.4065 19.5108 92.1671 18.638C91.5389 18.1681 90.7692 17.9275 89.8637 17.9275C88.545 17.9275 87.4584 18.3639 86.6151 19.2366C85.7831 20.0982 85.3643 21.1891 85.3643 22.4982C85.3757 23.8633 85.8397 24.9654 86.7679 25.8157ZM88.0979 20.1374C88.545 19.7401 89.1053 19.5443 89.7844 19.5443C90.4975 19.5443 91.0578 19.7569 91.4597 20.1821C91.8389 20.5681 92.0652 21.0772 92.0822 21.6199H87.3339C87.3905 21.0437 87.6621 20.5122 88.0979 20.1374ZM102.949 25.6759V26.8619H104.873V14.4534H102.949V19.3485C102.213 18.4031 101.171 17.9331 99.8245 17.9275C98.585 17.9275 97.572 18.3695 96.774 19.259C95.976 20.1318 95.5798 21.2171 95.5798 22.5038C95.5798 23.8017 95.976 24.8927 96.774 25.7654C97.572 26.6493 98.5907 27.0969 99.8245 27.0969C101.171 27.0913 102.213 26.6214 102.949 25.6759ZM98.3303 24.5738C97.7927 24.0087 97.5267 23.315 97.5267 22.4982C97.5267 21.6926 97.7927 21.0157 98.3303 20.4618C98.868 19.8968 99.5358 19.6115 100.345 19.6115C100.883 19.6115 101.415 19.7625 101.868 20.0478C102.32 20.3164 102.688 20.7024 102.949 21.1555V23.8521C102.699 24.3164 102.326 24.7024 101.879 24.9766C101.42 25.2619 100.888 25.4129 100.345 25.4129C99.5358 25.4074 98.8623 25.1332 98.3303 24.5738ZM109.712 18.1569H107.782V26.8619H109.712V18.1569ZM109.598 16.2548C109.831 16.0254 109.955 15.7177 109.949 15.3932C109.955 15.0688 109.831 14.7555 109.598 14.5261C109.378 14.2967 109.072 14.168 108.75 14.1736C108.421 14.168 108.11 14.2967 107.884 14.5261C107.652 14.7555 107.527 15.0688 107.538 15.3932C107.527 15.7121 107.657 16.0254 107.884 16.2548C108.11 16.4842 108.427 16.6072 108.75 16.6016C109.066 16.6072 109.372 16.4786 109.598 16.2548ZM120.318 25.1444C120.182 24.9934 120.114 24.7808 120.114 24.5066V21.2618C120.114 20.2101 119.746 19.3933 119.016 18.8059C118.286 18.2184 117.301 17.9275 116.062 17.9275C114.8 17.9275 113.736 18.1737 112.87 18.6716V20.3555C113.696 19.8408 114.658 19.5723 115.637 19.5779C117.352 19.5779 118.207 20.2101 118.207 21.4744V21.9556C117.397 21.508 116.463 21.2842 115.405 21.2842C114.403 21.2842 113.571 21.536 112.909 22.0451C112.23 22.543 111.891 23.2479 111.891 24.171C111.891 25.0941 112.202 25.8102 112.819 26.3137C113.447 26.8339 114.234 27.0913 115.173 27.0913C116.531 27.0913 117.607 26.6437 118.405 25.743C118.631 26.571 119.242 26.985 120.244 26.985C120.731 26.985 121.104 26.8899 121.37 26.6997V25.2451C121.212 25.329 121.031 25.3738 120.855 25.3682C120.646 25.3794 120.448 25.2955 120.318 25.1444ZM117.097 25.15C116.662 25.3402 116.186 25.4409 115.705 25.4409C115.122 25.4409 114.664 25.3234 114.324 25.0885C113.985 24.8535 113.815 24.5066 113.815 24.0591C113.803 23.6563 114.013 23.2759 114.358 23.0689C114.72 22.8339 115.224 22.7164 115.864 22.7164C116.684 22.7164 117.488 22.929 118.201 23.3374V24.4003C117.895 24.7248 117.516 24.9822 117.097 25.15Z" fill="#2D343C"/>
<path fill-rule="evenodd" clip-rule="evenodd" d="M45.2538 30.3585H45.101V34.2354H45.2538V30.3585ZM45.0331 28.7864C44.9369 28.8815 44.9369 28.971 45.0331 29.0661C45.1293 29.1612 45.2255 29.1612 45.3217 29.0661C45.4179 28.971 45.4179 28.8815 45.3217 28.7864C45.2255 28.6913 45.1293 28.6913 45.0331 28.7864ZM48.9495 30.6885C49.2608 30.5039 49.6173 30.4032 49.9852 30.3976C50.9417 30.3976 51.4227 30.9011 51.4227 31.9081V34.2354H51.5755V31.8802C51.5755 31.3599 51.4397 30.9571 51.1737 30.6774C50.9077 30.3976 50.5172 30.2578 50.0022 30.2578C49.6456 30.2578 49.2891 30.3417 48.9778 30.5039C48.6778 30.6494 48.4118 30.862 48.2024 31.1249V30.3585H48.0496V34.2354H48.2024V31.3655C48.3892 31.0857 48.6495 30.8564 48.9495 30.6885ZM56.3974 34.1515V33.9949C56.1824 34.1291 55.9334 34.2019 55.673 34.2019C55.1297 34.2019 54.8581 33.9166 54.8581 33.3459V30.5039H56.4654V30.3641H54.8581V29.0438H54.7052V30.3641H53.6186V30.5039H54.7052V33.3851C54.7052 33.704 54.7901 33.9445 54.9656 34.1012C55.1354 34.2634 55.3731 34.3417 55.673 34.3417C55.9277 34.3473 56.1824 34.2802 56.3974 34.1515ZM61.8419 33.9949V33.8382C61.491 34.0788 61.0609 34.2019 60.5402 34.2019C59.963 34.2019 59.4819 34.0229 59.097 33.6648C58.7179 33.3012 58.5311 32.848 58.5311 32.3053V32.2494H62.1645V32.1935C62.1645 32.0424 62.1475 31.8914 62.1192 31.7459C62.0796 31.5725 62.023 31.399 61.9438 31.2368C61.8646 31.0634 61.757 30.9011 61.6212 30.7557C61.4741 30.6046 61.2929 30.4871 61.0892 30.4088C60.8515 30.3137 60.5968 30.2634 60.3365 30.269C59.7592 30.269 59.2895 30.4592 58.9273 30.8452C58.5594 31.2368 58.3726 31.7235 58.3726 32.3053C58.3726 32.8928 58.582 33.3795 58.9952 33.7655C59.4083 34.1515 59.9233 34.3417 60.5402 34.3417C61.0835 34.3417 61.5193 34.2242 61.8419 33.9949ZM59.0574 30.9291C59.38 30.5766 59.8101 30.4032 60.3421 30.4032C60.6138 30.3976 60.8855 30.4536 61.1288 30.5711C61.3439 30.6718 61.525 30.8284 61.6608 31.0186C61.8872 31.3375 62.0117 31.7123 62.0174 32.0983H58.5424C58.5651 31.6676 58.7462 31.248 59.0574 30.9291ZM64.683 31.4997C64.8358 31.1976 65.0622 30.9291 65.3452 30.7333C65.6225 30.5207 65.9621 30.4032 66.313 30.4032V30.2634C65.9451 30.269 65.5942 30.3808 65.2942 30.5878C65.0452 30.7613 64.8358 30.985 64.683 31.248V30.3641H64.5302V34.241H64.683V31.4997ZM69.222 30.6885C69.5332 30.5039 69.8898 30.4032 70.2577 30.3976C71.2141 30.3976 71.6952 30.9011 71.6952 31.9081V34.2354H71.848V31.8802C71.848 31.3599 71.7122 30.9571 71.4462 30.6774C71.1802 30.3976 70.7896 30.2578 70.2746 30.2578C69.9181 30.2578 69.5615 30.3417 69.2446 30.5039C68.9446 30.6494 68.6786 30.862 68.4692 31.1249V30.3585H68.3164V34.2354H68.4692V31.3655C68.6617 31.0857 68.9163 30.8564 69.222 30.6885ZM77.6094 33.9949V33.8382C77.2585 34.0788 76.8284 34.2019 76.3077 34.2019C75.7304 34.2019 75.2494 34.0229 74.8645 33.6648C74.4853 33.3012 74.2986 32.848 74.2986 32.3053V32.2494H77.932V32.1935C77.932 32.0424 77.915 31.8914 77.8867 31.7459C77.8471 31.5725 77.7905 31.399 77.7113 31.2368C77.632 31.0634 77.5245 30.9011 77.3887 30.7557C77.2415 30.6046 77.0604 30.4871 76.8567 30.4088C76.619 30.3137 76.3643 30.2634 76.104 30.269C75.5267 30.269 75.0569 30.4592 74.6947 30.8452C74.3269 31.2368 74.1401 31.7235 74.1401 32.3053C74.1401 32.8928 74.3495 33.3795 74.7626 33.7655C75.1758 34.1515 75.6908 34.3417 76.3077 34.3417C76.8567 34.3417 77.2868 34.2242 77.6094 33.9949ZM74.8249 30.9291C75.1475 30.5766 75.5776 30.4032 76.1096 30.4032C76.3813 30.3976 76.6529 30.4536 76.8963 30.5711C77.1114 30.6718 77.2925 30.8284 77.4283 31.0186C77.6547 31.3375 77.7792 31.7123 77.7848 32.0983H74.3099C74.3325 31.6676 74.5193 31.248 74.8249 30.9291ZM82.437 34.1515V33.9949C82.2219 34.1291 81.9729 34.2019 81.7126 34.2019C81.1693 34.2019 80.8976 33.9166 80.8976 33.3459V30.5039H82.5049V30.3641H80.8976V29.0438H80.7448V30.3641H79.6581V30.5039H80.7448V33.3851C80.7448 33.704 80.8297 33.9445 81.0051 34.1012C81.1806 34.2578 81.4126 34.3417 81.7126 34.3417C81.9672 34.3473 82.2163 34.2802 82.437 34.1515ZM91.2376 33.5249C91.2376 33.7599 91.2942 33.9445 91.413 34.0732C91.5262 34.2019 91.6903 34.269 91.8658 34.269C91.945 34.269 92.0299 34.2578 92.1035 34.2298V34.09C92.0299 34.118 91.9507 34.1347 91.8714 34.1291C91.7299 34.1347 91.5941 34.0732 91.5149 33.9613C91.4243 33.827 91.379 33.6648 91.3847 33.5026V31.6508C91.3847 31.192 91.2319 30.8508 90.9263 30.6158C90.6207 30.3808 90.2132 30.2634 89.6925 30.2634C89.1322 30.2634 88.6625 30.3976 88.2889 30.6606V30.8228C88.6964 30.5431 89.1832 30.392 89.6812 30.4032C90.1792 30.4032 90.5641 30.5095 90.8301 30.7221C91.0961 30.9347 91.2319 31.2424 91.2319 31.6452V32.3221C90.7225 32.0144 90.134 31.8466 89.534 31.841C89.036 31.841 88.6285 31.9585 88.3172 32.1935C88.0173 32.4004 87.8418 32.7361 87.8532 33.0942C87.8532 33.4858 88.006 33.7935 88.3116 34.0173C88.6342 34.2354 89.019 34.3473 89.4095 34.3417C90.117 34.3529 90.7905 34.0508 91.2376 33.5249ZM88.4361 33.9277C88.1531 33.7375 88.0116 33.4578 88.0116 33.0942C88.0116 32.7641 88.1531 32.4956 88.4417 32.2886C88.7304 32.0816 89.1096 31.9809 89.585 31.9809C90.1396 31.9809 90.6942 32.1487 91.2432 32.49V33.3012C91.0451 33.5585 90.7905 33.7767 90.5018 33.9389C90.1849 34.1124 89.8283 34.2075 89.4661 34.2019C89.1039 34.2075 88.7474 34.1124 88.4361 33.9277ZM97.3442 35.455C97.7121 35.1473 97.8988 34.711 97.8988 34.1403V30.3585H97.746V31.1361C97.3329 30.5543 96.75 30.2634 96.0029 30.2634C95.386 30.2634 94.8823 30.4648 94.4918 30.8732C93.7221 31.6788 93.7221 32.9319 94.4918 33.7375C94.8823 34.1403 95.386 34.3417 96.0029 34.3417C96.75 34.3417 97.3329 34.0508 97.746 33.469V34.1403C97.746 34.6606 97.5762 35.069 97.231 35.3543C96.8914 35.6397 96.4217 35.7851 95.8331 35.7851C95.2955 35.7963 94.7691 35.6564 94.3107 35.3879V35.5501C94.7804 35.8019 95.3124 35.9306 95.8501 35.9194C96.4783 35.9138 96.9763 35.7627 97.3442 35.455ZM94.622 33.6536C94.2598 33.29 94.0617 32.8033 94.0673 32.2997C94.056 31.7962 94.2541 31.3095 94.622 30.9515C94.9842 30.5878 95.4879 30.3864 96.0086 30.3976C96.3764 30.3976 96.7386 30.4927 97.0499 30.6829C97.3555 30.8564 97.5989 31.1137 97.7517 31.4214V33.1725C97.5989 33.4802 97.3555 33.7375 97.0499 33.911C96.7386 34.1012 96.3764 34.1963 96.0086 34.1963C95.4879 34.2131 94.9842 34.0117 94.622 33.6536ZM103.751 33.9949V33.8382C103.4 34.0788 102.964 34.2019 102.449 34.2019C101.872 34.2019 101.391 34.0229 101.006 33.6648C100.627 33.3012 100.434 32.848 100.434 32.3053V32.2494H104.068V32.1935C104.068 32.0424 104.051 31.8914 104.022 31.7459C103.983 31.5725 103.926 31.399 103.847 31.2368C103.768 31.0634 103.655 30.9011 103.524 30.7557C103.372 30.6046 103.191 30.4871 102.992 30.4088C102.755 30.3137 102.5 30.2634 102.24 30.269C101.662 30.269 101.193 30.4592 100.83 30.8452C100.463 31.2368 100.276 31.7235 100.276 32.3053C100.276 32.8928 100.485 33.3795 100.898 33.7655C101.312 34.1515 101.827 34.3417 102.443 34.3417C102.992 34.3417 103.428 34.2242 103.751 33.9949ZM100.966 30.9291C101.289 30.5766 101.719 30.4032 102.251 30.4032C102.523 30.3976 102.794 30.4536 103.038 30.5711C103.253 30.6718 103.434 30.8284 103.57 31.0186C103.796 31.3375 103.921 31.7123 103.926 32.0983H100.451C100.474 31.6676 100.655 31.248 100.966 30.9291ZM107.339 30.6885C107.65 30.5039 108.007 30.4032 108.375 30.3976C109.331 30.3976 109.812 30.9011 109.812 31.9081V34.2354H109.965V31.8802C109.965 31.3599 109.829 30.9571 109.563 30.6774C109.297 30.3976 108.907 30.2578 108.392 30.2578C108.035 30.2578 107.679 30.3417 107.362 30.5039C107.062 30.6494 106.796 30.862 106.586 31.1249V30.3585H106.433V34.2354H106.586V31.3655C106.784 31.0857 107.039 30.8564 107.339 30.6885ZM112.846 33.7375C113.225 34.1403 113.729 34.3417 114.351 34.3417C114.849 34.3417 115.279 34.2187 115.647 33.9781V33.8103C115.268 34.0732 114.815 34.2075 114.351 34.1963C113.836 34.2075 113.338 34.0117 112.976 33.6536C112.614 33.29 112.416 32.8033 112.421 32.2997C112.41 31.7962 112.608 31.3095 112.976 30.9515C113.332 30.5878 113.836 30.3864 114.351 30.3976C114.781 30.392 115.2 30.5095 115.568 30.7333V30.5655C115.2 30.3529 114.781 30.241 114.351 30.2522C113.734 30.2522 113.231 30.4536 112.846 30.862C112.076 31.6788 112.076 32.9263 112.846 33.7375ZM118.675 35.6285C118.867 35.4383 119.071 35.125 119.281 34.6942L121.363 30.3585H121.193L119.484 33.8998L117.741 30.3585H117.571L119.399 34.0788C119.139 34.6774 118.907 35.1138 118.703 35.3823C118.505 35.6397 118.268 35.7683 117.985 35.7683C117.803 35.7683 117.628 35.7236 117.475 35.6341V35.7851C117.634 35.869 117.815 35.9138 117.996 35.9082C118.251 35.9194 118.5 35.8131 118.675 35.6285Z" fill="#2D343C"/>
<path fill-rule="evenodd" clip-rule="evenodd" d="M6.59766 9.11072L23.3386 13.2506L39.5928 9.11072V33.1893C39.5928 34.0677 41.7094 34.5768 41.7094 34.5768H37.8609V11.5275L23.3159 15.1639L8.60113 11.5275V34.5768H6.59766V9.11072Z" fill="#2D343C"/>
<path fill-rule="evenodd" clip-rule="evenodd" d="M34.8883 16.8198L24.3672 22.6996L34.9448 28.5067L26.9083 22.7052L34.8883 16.8198Z" fill="#2D343C"/>
<path fill-rule="evenodd" clip-rule="evenodd" d="M11.9023 16.8531C11.9023 16.8531 18.4957 16.4783 22.4178 22.7049C19.1239 28.2602 12.5702 28.5344 12.5645 28.5344L11.925 28.5511L11.9023 16.8531Z" fill="#2D343C"/>
<path fill-rule="evenodd" clip-rule="evenodd" d="M12.3359 17.3958C12.3359 17.3958 18.352 17.0601 21.9005 22.6826C18.9236 27.7008 12.9924 28.0029 12.9924 28.0029L12.3529 28.0197L12.3359 17.3958Z" fill="#EAC63C"/>
<path d="M16.2367 26.0117C17.0556 26.0117 17.7195 24.5665 17.7195 22.7837C17.7195 21.0009 17.0556 19.5557 16.2367 19.5557C15.4178 19.5557 14.7539 21.0009 14.7539 22.7837C14.7539 24.5665 15.4178 26.0117 16.2367 26.0117Z" fill="#2D343C"/>
<path fill-rule="evenodd" clip-rule="evenodd" d="M16.1367 19.1415L16.5329 22.0562L17.1271 19.3485" fill="#EAC63C"/>
</g>
</svg>
