<svg width="121" height="29" viewBox="0 0 121 29" fill="none" xmlns="http://www.w3.org/2000/svg">
<path fill-rule="evenodd" clip-rule="evenodd" d="M50.286 17.6637C51.6256 16.4455 52.2925 14.8741 52.2925 12.9437C52.2925 11.0309 51.6256 9.4654 50.286 8.24124C48.9464 7.02296 47.2258 6.41088 45.1241 6.41088H40.486V19.4647H45.1241C47.2377 19.4706 48.9583 18.8702 50.286 17.6637ZM44.9395 8.30009C46.5887 8.30009 47.8747 8.71796 48.7857 9.5478C49.7145 10.3953 50.1729 11.5253 50.1729 12.9437C50.1729 14.362 49.7085 15.492 48.7857 16.3395C47.8747 17.1753 46.5887 17.5872 44.9395 17.5872H42.558V8.30009H44.9395ZM65.3968 18.6701V16.5985C64.3966 17.393 63.1463 17.7932 61.64 17.7932C60.223 17.7932 59.056 17.34 58.1332 16.4337C57.2044 15.5156 56.7459 14.3503 56.7459 12.9437C56.7459 11.5371 57.2044 10.3835 58.1153 9.47717C59.0441 8.55905 60.1932 8.09999 61.5685 8.09999C62.8248 8.08822 64.0632 8.44723 65.117 9.12405V7.05239C64.0751 6.46974 62.8903 6.17547 61.5507 6.17547C59.5502 6.17547 57.895 6.81697 56.5971 8.0941C55.2813 9.35946 54.6264 10.9779 54.6264 12.9437C54.6264 14.9094 55.2813 16.5279 56.5971 17.8109C57.9367 19.0762 59.5859 19.7119 61.5507 19.7119C63.0153 19.7119 64.2954 19.3646 65.3968 18.6701ZM69.9932 9.5478L73.6548 14.4739H74.8575L78.5191 9.5478V19.4706H80.585V6.41677H78.5191L74.2978 12.2904L70.0349 6.41677H67.9332V19.4706H69.9991V9.5478H69.9932ZM84.4669 18.37C85.4672 19.2646 86.6758 19.7119 88.0869 19.7119C89.4979 19.7119 90.6351 19.4117 91.4865 18.8173V17.1223C90.5934 17.6579 89.5694 17.9462 88.5215 17.9404C87.5689 17.9404 86.783 17.7226 86.1638 17.2871C85.5446 16.8516 85.1695 16.2513 85.0445 15.4803H92.0997V14.9565C92.0997 13.1143 91.4508 11.7372 90.1469 10.819C89.486 10.3247 88.6763 10.0716 87.7237 10.0716C86.3364 10.0716 85.1933 10.5307 84.3062 11.4488C83.431 12.3551 82.9904 13.5028 82.9904 14.88C83.0023 16.316 83.4905 17.4754 84.4669 18.37ZM85.8661 12.3963C86.3364 11.9785 86.9259 11.7725 87.6403 11.7725C88.3905 11.7725 88.9799 11.9961 89.4027 12.4434C89.8016 12.8495 90.0397 13.3851 90.0576 13.956H85.0623C85.1219 13.3498 85.4076 12.7906 85.8661 12.3963ZM101.489 18.2229V19.4706H103.513V6.41677H101.489V11.5665C100.715 10.5719 99.6194 10.0775 98.2024 10.0716C96.8985 10.0716 95.8328 10.5365 94.9933 11.4723C94.1538 12.3904 93.737 13.5322 93.737 14.8858C93.737 16.2513 94.1538 17.3989 94.9933 18.317C95.8328 19.2469 96.9045 19.7177 98.2024 19.7177C99.6194 19.7119 100.715 19.2175 101.489 18.2229ZM96.6306 17.0634C96.065 16.469 95.7852 15.7392 95.7852 14.88C95.7852 14.0325 96.065 13.3203 96.6306 12.7377C97.1962 12.1432 97.8988 11.8431 98.7502 11.8431C99.3158 11.8431 99.8754 12.002 100.352 12.3022C100.828 12.5847 101.215 12.9907 101.489 13.4675V16.3042C101.227 16.7927 100.834 17.1988 100.364 17.4872C99.8814 17.7873 99.3217 17.9462 98.7502 17.9462C97.8988 17.9404 97.1903 17.652 96.6306 17.0634ZM108.604 10.3129H106.573V19.4706H108.604V10.3129ZM108.485 8.31186C108.729 8.07056 108.86 7.74687 108.854 7.40551C108.86 7.06416 108.729 6.73458 108.485 6.49328C108.252 6.25198 107.931 6.11661 107.592 6.1225C107.246 6.11661 106.919 6.25198 106.681 6.49328C106.437 6.73458 106.306 7.06416 106.317 7.40551C106.306 7.74098 106.443 8.07056 106.681 8.31186C106.919 8.55316 107.252 8.68264 107.592 8.67676C107.925 8.68264 108.247 8.54728 108.485 8.31186ZM119.761 17.6637C119.618 17.5048 119.547 17.2812 119.547 16.9928V13.5793C119.547 12.4728 119.16 11.6136 118.392 10.9956C117.624 10.3776 116.588 10.0716 115.284 10.0716C113.956 10.0716 112.837 10.3306 111.926 10.8544V12.6259C112.795 12.0844 113.807 11.8019 114.837 11.8078C116.641 11.8078 117.54 12.4728 117.54 13.8029V14.3091C116.689 13.8382 115.707 13.6028 114.593 13.6028C113.539 13.6028 112.664 13.8677 111.968 14.4032C111.253 14.927 110.896 15.6686 110.896 16.6397C110.896 17.6108 111.223 18.3641 111.872 18.8938C112.533 19.4411 113.361 19.7119 114.349 19.7119C115.778 19.7119 116.909 19.241 117.749 18.2935C117.987 19.1645 118.63 19.6 119.684 19.6C120.196 19.6 120.589 19.5 120.869 19.2999V17.7697C120.702 17.858 120.511 17.905 120.327 17.8992C120.107 17.9109 119.898 17.8226 119.761 17.6637ZM116.373 17.6696C115.915 17.8697 115.415 17.9757 114.909 17.9757C114.296 17.9757 113.813 17.8521 113.456 17.6049C113.099 17.3577 112.92 16.9928 112.92 16.522C112.908 16.0982 113.129 15.698 113.492 15.4803C113.873 15.2331 114.403 15.1095 115.076 15.1095C115.939 15.1095 116.784 15.3331 117.534 15.7628V16.881C117.213 17.2223 116.814 17.4931 116.373 17.6696Z" fill="white"/>
<path fill-rule="evenodd" clip-rule="evenodd" d="M40.7941 23.1492H40.6334V27.2278H40.7941V23.1492ZM40.5619 21.4954C40.4607 21.5955 40.4607 21.6897 40.5619 21.7897C40.6632 21.8898 40.7644 21.8898 40.8656 21.7897C40.9668 21.6897 40.9668 21.5955 40.8656 21.4954C40.7644 21.3954 40.6632 21.3954 40.5619 21.4954ZM44.682 23.4965C45.0095 23.3023 45.3846 23.1963 45.7716 23.1904C46.7777 23.1904 47.2838 23.7201 47.2838 24.7795V27.2278H47.4446V24.7501C47.4446 24.2027 47.3017 23.779 47.0219 23.4847C46.742 23.1904 46.3312 23.0433 45.7894 23.0433C45.4143 23.0433 45.0392 23.1316 44.7118 23.3023C44.3962 23.4553 44.1164 23.6789 43.8961 23.9555V23.1492H43.7353V27.2278H43.8961V24.2086C44.0926 23.9143 44.3664 23.673 44.682 23.4965ZM52.5172 27.1395V26.9747C52.291 27.116 52.029 27.1925 51.7551 27.1925C51.1836 27.1925 50.8978 26.8923 50.8978 26.292V23.3023H52.5887V23.1551H50.8978V21.7662H50.737V23.1551H49.5939V23.3023H50.737V26.3332C50.737 26.6687 50.8264 26.9218 51.0109 27.0866C51.1895 27.2572 51.4396 27.3396 51.7551 27.3396C52.0231 27.3455 52.291 27.2749 52.5172 27.1395ZM58.2448 26.9747V26.81C57.8757 27.063 57.4232 27.1925 56.8754 27.1925C56.2681 27.1925 55.7621 27.0042 55.3572 26.6275C54.9583 26.245 54.7618 25.7682 54.7618 25.1974V25.1385H58.5842V25.0796C58.5842 24.9207 58.5663 24.7618 58.5366 24.6088C58.4949 24.4264 58.4353 24.2439 58.352 24.0732C58.2686 23.8908 58.1555 23.7201 58.0126 23.5671C57.8578 23.4082 57.6673 23.2846 57.453 23.2022C57.2029 23.1022 56.935 23.0492 56.6611 23.0551C56.0538 23.0551 55.5596 23.2552 55.1786 23.6613C54.7916 24.0732 54.5951 24.5853 54.5951 25.1974C54.5951 25.8153 54.8154 26.3274 55.25 26.7334C55.6847 27.1395 56.2265 27.3396 56.8754 27.3396C57.447 27.3396 57.9055 27.216 58.2448 26.9747ZM55.3155 23.7496C55.6549 23.3788 56.1074 23.1963 56.6671 23.1963C56.9528 23.1904 57.2386 23.2493 57.4946 23.3729C57.7209 23.4788 57.9114 23.6436 58.0543 23.8437C58.2925 24.1792 58.4234 24.5735 58.4294 24.9796H54.7737C54.7976 24.5264 54.9881 24.085 55.3155 23.7496ZM61.2336 24.3499C61.3944 24.0321 61.6325 23.7496 61.9302 23.5436C62.222 23.3199 62.5792 23.1963 62.9483 23.1963V23.0492C62.5613 23.0551 62.1922 23.1728 61.8767 23.3905C61.6147 23.573 61.3944 23.8084 61.2336 24.085V23.1551H61.0729V27.2337H61.2336V24.3499ZM66.0086 23.4965C66.3361 23.3023 66.7112 23.1963 67.0982 23.1904C68.1044 23.1904 68.6104 23.7201 68.6104 24.7795V27.2278H68.7712V24.7501C68.7712 24.2027 68.6283 23.779 68.3485 23.4847C68.0686 23.1904 67.6578 23.0433 67.116 23.0433C66.7409 23.0433 66.3658 23.1316 66.0324 23.3023C65.7169 23.4553 65.437 23.6789 65.2168 23.9555V23.1492H65.056V27.2278H65.2168V24.2086C65.4192 23.9143 65.6871 23.673 66.0086 23.4965ZM74.8322 26.9747V26.81C74.4631 27.063 74.0106 27.1925 73.4628 27.1925C72.8555 27.1925 72.3494 27.0042 71.9446 26.6275C71.5457 26.245 71.3492 25.7682 71.3492 25.1974V25.1385H75.1716V25.0796C75.1716 24.9207 75.1537 24.7618 75.1239 24.6088C75.0822 24.4264 75.0227 24.2439 74.9394 24.0732C74.856 23.8908 74.7429 23.7201 74.6 23.5671C74.4452 23.4082 74.2547 23.2846 74.0403 23.2022C73.7903 23.1022 73.5223 23.0492 73.2485 23.0551C72.6412 23.0551 72.147 23.2552 71.766 23.6613C71.379 24.0732 71.1825 24.5853 71.1825 25.1974C71.1825 25.8153 71.4028 26.3274 71.8374 26.7334C72.272 27.1395 72.8138 27.3396 73.4628 27.3396C74.0403 27.3396 74.4928 27.216 74.8322 26.9747ZM71.9029 23.7496C72.2423 23.3788 72.6948 23.1963 73.2544 23.1963C73.5402 23.1904 73.826 23.2493 74.082 23.3729C74.3083 23.4788 74.4988 23.6436 74.6417 23.8437C74.8798 24.1792 75.0108 24.5735 75.0168 24.9796H71.3611C71.3849 24.5264 71.5814 24.085 71.9029 23.7496ZM79.9108 27.1395V26.9747C79.6846 27.116 79.4226 27.1925 79.1487 27.1925C78.5772 27.1925 78.2914 26.8923 78.2914 26.292V23.3023H79.9823V23.1551H78.2914V21.7662H78.1306V23.1551H76.9875V23.3023H78.1306V26.3332C78.1306 26.6687 78.2199 26.9218 78.4045 27.0866C78.5891 27.2514 78.8332 27.3396 79.1487 27.3396C79.4166 27.3455 79.6786 27.2749 79.9108 27.1395ZM89.169 26.4804C89.169 26.7276 89.2285 26.9218 89.3536 27.0571C89.4727 27.1925 89.6453 27.2631 89.8299 27.2631C89.9132 27.2631 90.0026 27.2514 90.08 27.2219V27.0748C90.0026 27.1042 89.9192 27.1219 89.8358 27.116C89.687 27.1219 89.5441 27.0571 89.4608 26.9394C89.3655 26.7982 89.3179 26.6275 89.3238 26.4568V24.5088C89.3238 24.0262 89.1631 23.6672 88.8416 23.42C88.52 23.1728 88.0914 23.0492 87.5436 23.0492C86.9542 23.0492 86.46 23.1904 86.0671 23.4671V23.6377C86.4957 23.3435 87.0078 23.1846 87.5317 23.1963C88.0556 23.1963 88.4605 23.3081 88.7403 23.5318C89.0202 23.7554 89.1631 24.0791 89.1631 24.5029V25.215C88.6272 24.8913 88.008 24.7148 87.3769 24.7089C86.853 24.7089 86.4243 24.8325 86.0968 25.0796C85.7813 25.2974 85.5967 25.6505 85.6086 26.0272C85.6086 26.4392 85.7694 26.7629 86.0909 26.9983C86.4303 27.2278 86.8351 27.3455 87.2459 27.3396C87.9902 27.3514 88.6987 27.0336 89.169 26.4804ZM86.2219 26.9041C85.9242 26.704 85.7753 26.4097 85.7753 26.0272C85.7753 25.68 85.9242 25.3975 86.2278 25.1797C86.5315 24.9619 86.9304 24.856 87.4305 24.856C88.014 24.856 88.5974 25.0326 89.175 25.3916V26.245C88.9666 26.5157 88.6987 26.7452 88.395 26.9159C88.0616 27.0983 87.6865 27.1984 87.3055 27.1925C86.9244 27.1984 86.5493 27.0983 86.2219 26.9041ZM95.5932 28.5108C95.9802 28.1871 96.1767 27.7281 96.1767 27.1278V23.1492H96.0159V23.9673C95.5813 23.3552 94.968 23.0492 94.1821 23.0492C93.5332 23.0492 93.0033 23.2611 92.5925 23.6907C91.7827 24.5382 91.7827 25.8565 92.5925 26.704C93.0033 27.1278 93.5332 27.3396 94.1821 27.3396C94.968 27.3396 95.5813 27.0336 96.0159 26.4215V27.1278C96.0159 27.6751 95.8373 28.1047 95.4741 28.4049C95.1169 28.705 94.6227 28.8581 94.0035 28.8581C93.4379 28.8698 92.8842 28.7227 92.4019 28.4402V28.6109C92.8961 28.8757 93.4558 29.0111 94.0214 28.9993C94.6823 28.9934 95.2062 28.8345 95.5932 28.5108ZM92.7294 26.6157C92.3484 26.2332 92.14 25.7212 92.1459 25.1915C92.134 24.6618 92.3424 24.1498 92.7294 23.7731C93.1105 23.3905 93.6403 23.1787 94.1881 23.1904C94.5751 23.1904 94.9561 23.2905 95.2836 23.4906C95.6051 23.673 95.8611 23.9438 96.0219 24.2675V26.1096C95.8611 26.4333 95.6051 26.704 95.2836 26.8865C94.9561 27.0866 94.5751 27.1866 94.1881 27.1866C93.6403 27.2043 93.1105 26.9924 92.7294 26.6157ZM102.333 26.9747V26.81C101.964 27.063 101.505 27.1925 100.964 27.1925C100.356 27.1925 99.8502 27.0042 99.4453 26.6275C99.0464 26.245 98.844 25.7682 98.844 25.1974V25.1385H102.666V25.0796C102.666 24.9207 102.648 24.7618 102.619 24.6088C102.577 24.4264 102.517 24.2439 102.434 24.0732C102.351 23.8908 102.232 23.7201 102.095 23.5671C101.934 23.4082 101.743 23.2846 101.535 23.2022C101.285 23.1022 101.017 23.0492 100.743 23.0551C100.136 23.0551 99.6418 23.2552 99.2608 23.6613C98.8738 24.0732 98.6773 24.5853 98.6773 25.1974C98.6773 25.8153 98.8976 26.3274 99.3322 26.7334C99.7668 27.1395 100.309 27.3396 100.958 27.3396C101.535 27.3396 101.994 27.216 102.333 26.9747ZM99.4036 23.7496C99.743 23.3788 100.196 23.1963 100.755 23.1963C101.041 23.1904 101.327 23.2493 101.583 23.3729C101.809 23.4788 102 23.6436 102.142 23.8437C102.381 24.1792 102.512 24.5735 102.517 24.9796H98.8619C98.8857 24.5264 99.0762 24.085 99.4036 23.7496ZM106.108 23.4965C106.435 23.3023 106.81 23.1963 107.197 23.1904C108.203 23.1904 108.709 23.7201 108.709 24.7795V27.2278H108.87V24.7501C108.87 24.2027 108.727 23.779 108.448 23.4847C108.168 23.1904 107.757 23.0433 107.215 23.0433C106.84 23.0433 106.465 23.1316 106.131 23.3023C105.816 23.4553 105.536 23.6789 105.316 23.9555V23.1492H105.155V27.2278H105.316V24.2086C105.524 23.9143 105.792 23.673 106.108 23.4965ZM111.901 26.704C112.3 27.1278 112.83 27.3396 113.484 27.3396C114.008 27.3396 114.461 27.2102 114.848 26.9571V26.7805C114.449 27.0571 113.973 27.1984 113.484 27.1866C112.943 27.1984 112.419 26.9924 112.038 26.6157C111.657 26.2332 111.448 25.7212 111.454 25.1915C111.442 24.6618 111.651 24.1498 112.038 23.7731C112.413 23.3905 112.943 23.1787 113.484 23.1904C113.937 23.1846 114.378 23.3081 114.765 23.5436V23.367C114.378 23.1434 113.937 23.0257 113.484 23.0374C112.835 23.0374 112.306 23.2493 111.901 23.6789C111.091 24.5382 111.091 25.8506 111.901 26.704ZM118.033 28.6933C118.236 28.4932 118.45 28.1636 118.67 27.7104L120.861 23.1492H120.683L118.885 26.8747L117.051 23.1492H116.872L118.795 27.063C118.521 27.6928 118.277 28.1518 118.063 28.4343C117.855 28.705 117.604 28.8404 117.307 28.8404C117.116 28.8404 116.932 28.7933 116.771 28.6992V28.8581C116.938 28.9463 117.128 28.9934 117.319 28.9875C117.587 28.9993 117.849 28.8875 118.033 28.6933Z" fill="white"/>
<path fill-rule="evenodd" clip-rule="evenodd" d="M0.132812 0.796875L17.7442 5.15206L34.8436 0.796875V26.1276C34.8436 27.0516 37.0704 27.5871 37.0704 27.5871H33.0218V3.33936L17.7204 7.16486L2.24047 3.33936V27.5871H0.132812V0.796875Z" fill="white"/>
<path fill-rule="evenodd" clip-rule="evenodd" d="M29.8912 8.90918L18.823 15.0947L29.9507 21.2037L21.4963 15.1006L29.8912 8.90918Z" fill="white"/>
<path fill-rule="evenodd" clip-rule="evenodd" d="M5.71362 8.94474C5.71362 8.94474 12.6498 8.55042 16.7758 15.1009C13.3107 20.945 6.41617 21.2334 6.41022 21.2334L5.73744 21.2511L5.71362 8.94474Z" fill="white"/>
<path fill-rule="evenodd" clip-rule="evenodd" d="M6.16957 9.51305C6.16957 9.51305 12.4985 9.15993 16.2315 15.0747C13.0998 20.3539 6.86021 20.6718 6.86021 20.6718L6.18743 20.6894L6.16957 9.51305Z" fill="#EAC63C"/>
<path d="M10.2718 18.5752C11.1333 18.5752 11.8317 17.0548 11.8317 15.1793C11.8317 13.3038 11.1333 11.7834 10.2718 11.7834C9.41032 11.7834 8.71193 13.3038 8.71193 15.1793C8.71193 17.0548 9.41032 18.5752 10.2718 18.5752Z" fill="black"/>
<path fill-rule="evenodd" clip-rule="evenodd" d="M10.1637 11.3494L10.5804 14.4157L11.2056 11.5671" fill="#EAC63C"/>
</svg>
