<svg width="35" height="35" viewBox="0 0 35 35" fill="none" xmlns="http://www.w3.org/2000/svg">
<path d="M8.7323 14.2871H6.56251C6.29003 14.2871 6.02869 14.3956 5.83626 14.5886C5.64382 14.7816 5.53623 15.0432 5.53711 15.3158L5.55222 23.105C5.55222 23.6713 6.01132 24.1304 6.57761 24.1304C7.1439 24.1304 7.603 23.6713 7.603 23.105V20.74C8.02225 20.7378 8.47014 20.736 8.7323 20.736C10.534 20.736 11.9998 19.2895 11.9998 17.5116C11.9998 15.7336 10.534 14.2871 8.7323 14.2871ZM8.7323 18.6852C8.46782 18.6852 8.01829 18.6871 7.5974 18.6892C7.59521 18.2527 7.5933 17.7826 7.5933 17.5116C7.5933 17.2796 7.59213 16.7942 7.5909 16.3379H8.73223C9.39176 16.3379 9.94896 16.8753 9.94896 17.5116C9.94896 18.1478 9.39183 18.6852 8.7323 18.6852Z" fill="#2D343C"/>
<path d="M17.4542 14.2871H15.3125C15.0402 14.2871 14.7791 14.3954 14.5867 14.5881C14.3944 14.7808 14.2866 15.0421 14.2871 15.3144C14.2871 15.3145 14.3024 22.8508 14.3024 22.8781C14.3034 23.1501 14.4124 23.4106 14.6055 23.6022C14.7976 23.7929 15.0572 23.8998 15.3278 23.8998H15.3317C15.3964 23.8995 16.9241 23.8937 17.5348 23.8831C19.8518 23.8426 21.5334 21.8282 21.5334 19.0935C21.5333 16.2187 19.8941 14.2871 17.4542 14.2871ZM17.499 21.8326C17.2334 21.8373 16.7765 21.841 16.3498 21.8438C16.3469 20.9531 16.3413 17.2635 16.3397 16.3379H17.4542C19.3363 16.3379 19.4826 18.4471 19.4826 19.0935C19.4826 20.4397 18.8692 21.8087 17.499 21.8326Z" fill="#2D343C"/>
<path d="M28.2914 16.259C28.8577 16.259 29.3168 15.7999 29.3168 15.2336C29.3168 14.6674 28.8577 14.2083 28.2914 14.2083H25.1562C24.59 14.2083 24.1309 14.6674 24.1309 15.2336V22.969C24.1309 23.5353 24.59 23.9944 25.1562 23.9944C25.7225 23.9944 26.1816 23.5353 26.1816 22.969V20.0535H28.0424C28.6087 20.0535 29.0678 19.5944 29.0678 19.0281C29.0678 18.4618 28.6087 18.0027 28.0424 18.0027H26.1816V16.259H28.2914Z" fill="#2D343C"/>
<path d="M31.3086 9.91211H30.5566V9.6196C30.5566 8.30149 30.0572 7.04881 29.1504 6.09219L24.8912 1.59954C23.9275 0.583037 22.5714 0 21.1706 0H7.51953C5.82333 0 4.44336 1.37997 4.44336 3.07617V9.91211H3.69141C1.99521 9.91211 0.615234 11.2921 0.615234 12.9883V25.293C0.615234 26.9892 1.99521 28.3691 3.69141 28.3691H4.44336V31.9238C4.44336 33.62 5.82333 35 7.51953 35H27.4805C29.1767 35 30.5566 33.62 30.5566 31.9238V28.3691H31.3086C33.0048 28.3691 34.3848 26.9892 34.3848 25.293V12.9883C34.3848 11.2921 33.0048 9.91211 31.3086 9.91211ZM6.49414 3.07617C6.49414 2.51077 6.95413 2.05078 7.51953 2.05078H21.1706C22.011 2.05078 22.8247 2.40058 23.403 3.01055L27.6621 7.50319C28.2062 8.07714 28.5059 8.82875 28.5059 9.6196V9.91211H6.49414V3.07617ZM28.5059 31.9238C28.5059 32.4892 28.0459 32.9492 27.4805 32.9492H7.51953C6.95413 32.9492 6.49414 32.4892 6.49414 31.9238V28.3691H28.5059V31.9238ZM32.334 25.293C32.334 25.8584 31.874 26.3184 31.3086 26.3184H3.69141C3.12601 26.3184 2.66602 25.8584 2.66602 25.293V12.9883C2.66602 12.4229 3.12601 11.9629 3.69141 11.9629H31.3086C31.874 11.9629 32.334 12.4229 32.334 12.9883V25.293Z" fill="#2D343C"/>
</svg>
