<svg width="75" height="76" viewBox="0 0 75 76" fill="none" xmlns="http://www.w3.org/2000/svg">
<path d="M8.42167 59.5101H2.94667L8.42167 52.3849H2.94667L8.42167 45.2598H2.94667L8.42167 38.1346H2.94667L8.42167 31.0095H2.94667L8.42167 23.8844H2.94667L8.42167 16.7255H2.94667L8.42167 9.40947H1V2.09344L74 2V9.40947H71.1409L64.145 16.7255H71.1409L64.145 23.8844H71.1409L64.145 31.0095H71.1409L64.145 38.1346L71.1409 38.1346L64.145 45.2598H71.1409L64.145 52.3849L71.1409 52.3849L64.145 59.5101H71.1409L64.145 66.6352H71.1409L64.145 74H2.94667L8.42167 66.6352H2.94667L8.42167 59.5101Z" fill="white"/>
<path d="M8.42167 59.5101H2.94667L8.42167 52.3849M8.42167 59.5101H64.145M8.42167 59.5101L2.94667 66.6352H64.145M8.42167 31.0095H2.94667L8.42167 23.8844M8.42167 31.0095H64.145M8.42167 31.0095L2.94667 38.1346H8.42167M8.42167 16.7255H2.94667L8.42167 9.40947M8.42167 16.7255H64.145M8.42167 16.7255L2.94667 23.8844H8.42167M8.42167 9.40947H1V2.09344L74 2V9.40947M8.42167 9.40947H66.0917H74M8.42167 23.8844H64.145M8.42167 45.2598H2.94667L8.42167 38.1346M8.42167 45.2598H64.145M8.42167 45.2598L2.94667 52.3849H8.42167M8.42167 38.1346H64.145M8.42167 52.3849H64.145M64.145 59.5101L71.1409 52.3849L64.145 52.3849M64.145 59.5101H71.1409L64.145 66.6352M64.145 52.3849L71.1409 45.2598H64.145M64.145 45.2598L71.1409 38.1346L64.145 38.1346M64.145 38.1346L71.1409 31.0095H64.145M64.145 31.0095L71.1409 23.8844H64.145M64.145 23.8844L71.1409 16.7255H64.145M64.145 16.7255L71.1409 9.40947M68.525 9.40947H74M64.145 66.6352H71.1409L64.145 74H2.94667L8.42167 66.6352" stroke="#2D343C" stroke-width="2"/>
<path d="M17.5742 9.63538V13.1979" stroke="#2D343C" stroke-width="2"/>
<path d="M17.5742 16.7617V20.3243" stroke="#2D343C" stroke-width="2"/>
<path d="M17.5742 23.884V27.4466" stroke="#2D343C" stroke-width="2"/>
<path d="M17.5742 31.0104V34.5729" stroke="#2D343C" stroke-width="2"/>
<path d="M17.5742 38.1346V41.6972" stroke="#2D343C" stroke-width="2"/>
<path d="M17.5742 45.261V48.8236" stroke="#2D343C" stroke-width="2"/>
<path d="M17.5742 52.3834V55.9459" stroke="#2D343C" stroke-width="2"/>
<path d="M17.5742 59.5097V63.0723" stroke="#2D343C" stroke-width="2"/>
<path d="M17.5742 67.2698V70.8323" stroke="#2D343C" stroke-width="2"/>
<path d="M55.6133 9.63538V13.1979" stroke="#2D343C" stroke-width="2"/>
<path d="M55.6133 16.7623V20.3249" stroke="#2D343C" stroke-width="2"/>
<path d="M55.6133 23.8846V27.4472" stroke="#2D343C" stroke-width="2"/>
<path d="M55.6133 31.011V34.5736" stroke="#2D343C" stroke-width="2"/>
<path d="M55.6133 38.1353V41.6978" stroke="#2D343C" stroke-width="2"/>
<path d="M55.6133 45.2616V48.8242" stroke="#2D343C" stroke-width="2"/>
<path d="M55.6133 52.384V55.9465" stroke="#2D343C" stroke-width="2"/>
<path d="M55.6133 59.5103V63.0729" stroke="#2D343C" stroke-width="2"/>
<path d="M55.6133 67.2704V70.833" stroke="#2D343C" stroke-width="2"/>
</svg>
