<svg width="75" height="76" viewBox="0 0 75 76" fill="none" xmlns="http://www.w3.org/2000/svg">
<path d="M5.17324 7.17257H13.5159H65.6574M5.17324 7.17257V1.13867M5.17324 7.17257V5.82572H1.00192V2.18024H5.17324V1.13867M5.17324 7.17257H8.30173V38.4438M5.17324 1.13867H13.5159H68.7859M68.7859 1.13867V4.15562V7.17257M68.7859 1.13867V2.18024H72.9572V4.15562V5.82572H68.7859V7.17257M68.7859 7.17257H65.6574M65.6574 7.17257V67.0087M65.6574 67.0087V74.0483H29.1583M65.6574 67.0087H33.3297" stroke="#2D343C" stroke-width="2" stroke-linecap="round"/>
<path d="M34.5009 37.8543L31.9572 40.3948M18.9565 59.0254L16.4128 61.566M37.3271 40.6771L34.7835 43.2176M16.1302 56.2026L13.5866 58.7432M34.2182 31.9263L43.2622 40.9594L11.043 73.1396L1.99896 64.1065L34.2182 31.9263Z" stroke="#2D343C" stroke-width="2"/>
<path d="M31.0541 27.3694C35.7102 25.399 41.2977 26.3093 45.0932 30.1002C48.8888 33.8911 49.8001 39.4718 47.8273 44.1223" stroke="#2D343C" stroke-width="2" stroke-linejoin="round"/>
<path d="M27.1881 21.2486C34.6559 17.5498 43.9563 18.81 50.1755 25.0293C56.3947 31.2486 57.6549 40.5491 53.9561 48.0171" stroke="#2D343C" stroke-width="2" stroke-linejoin="round"/>
<circle r="3.1956" transform="matrix(0.707536 0.706678 -0.707536 0.706678 22.3525 52.8139)" stroke="#2D343C" stroke-width="2"/>
<circle r="1.19835" transform="matrix(0.707536 0.706678 -0.707536 0.706678 11.0464 61.2821)" fill="#2D343C"/>
<circle r="1.19835" transform="matrix(0.707536 0.706678 -0.707536 0.706678 29.1362 43.2138)" fill="#2D343C"/>
<circle r="1.19835" transform="matrix(0.707536 0.706678 -0.707536 0.706678 13.8725 64.1044)" fill="#2D343C"/>
<circle r="1.19835" transform="matrix(0.707536 0.706678 -0.707536 0.706678 31.9604 46.0419)" fill="#2D343C"/>
</svg>
