<svg width="77" height="77" viewBox="0 0 77 77" fill="none" xmlns="http://www.w3.org/2000/svg">
<path d="M71.7142 66.8928V64.3273C71.7142 63.9043 71.8395 63.4907 72.0741 63.1387C72.9223 61.8664 74.7919 61.8664 75.6401 63.1387C75.8747 63.4907 75.9999 63.9043 75.9999 64.3273V66.8928H71.7142Z" stroke="#2D343C" stroke-width="2"/>
<path d="M73.8555 10.1074V59.7042" stroke="#2D343C" stroke-width="2" stroke-dasharray="2 2"/>
<path d="M5.28571 7.2069H13.8571H67.4286M5.28571 7.2069V1M5.28571 7.2069V5.82143H1V2.07143H5.28571V1M5.28571 7.2069H8.5V68.7586M5.28571 1H13.8571H70.6429M70.6429 1V4.10345V7.2069M70.6429 1V2.07143H74.9286V4.10345V5.82143H70.6429V7.2069M70.6429 7.2069H67.4286M67.4286 7.2069V68.7586M67.4286 68.7586V76H8.5V68.7586M67.4286 68.7586H8.5" stroke="#2D343C" stroke-width="2"/>
<path d="M44 54H50C51.1046 54 52 53.1046 52 52V43.5M44 54H26C24.8954 54 24 53.1046 24 52V51.0833M44 54L36.5714 46.4167M24 51.0833V28C24 26.8954 24.8954 26 26 26H50C51.1046 26 52 26.8954 52 28V43.5M24 51.0833L31.1427 43.7918C31.927 42.9912 33.2159 42.9912 34.0001 43.7918L36.5714 46.4167M36.5714 46.4167L44.2856 38.5418C45.0698 37.7412 46.3588 37.7412 47.143 38.5418L52 43.5M30.8571 30.6667V30.6667C32.1195 30.6667 33.1429 31.69 33.1429 32.9524V33.0476C33.1429 34.31 32.1195 35.3333 30.8571 35.3333V35.3333C29.5948 35.3333 28.5714 34.31 28.5714 33.0476V32.9524C28.5714 31.69 29.5948 30.6667 30.8571 30.6667Z" stroke="#2D343C" stroke-width="2"/>
</svg>
