<svg width="77" height="76" viewBox="0 0 77 76" fill="none" xmlns="http://www.w3.org/2000/svg">
<path d="M7.21429 1.13867H2V7.18005H7.21429M7.21429 1.13867H69.7857M7.21429 1.13867V7.18005M7.21429 7.18005H69.7857M7.21429 7.18005L2 12.3943M69.7857 1.13867H75V7.18005H69.7857M69.7857 1.13867V7.18005M69.7857 7.18005L75 12.3943M2 12.3943L7.21429 17.6086M2 12.3943H75M7.21429 17.6086L2 22.8229M7.21429 17.6086H69.7857M2 22.8229L75 22.8229M2 22.8229L7.21429 28.0372M7.21429 28.0372L2 33.2515M7.21429 28.0372L69.7857 28.0372M2 33.2515L7.21429 38.4658M2 33.2515L75 33.2515M7.21429 38.4658L2 43.68M7.21429 38.4658H69.7857M2 43.68L7.21429 48.8943M2 43.68H75M7.21429 48.8943L2 54.1086M7.21429 48.8943H69.7857M2 54.1086L7.21429 59.3229M2 54.1086H75M7.21429 59.3229L2 64.5372M7.21429 59.3229H69.7857M2 64.5372L7.68177 70.219M2 64.5372H75M7.68177 70.219H2V74.1387H25.4643M7.68177 70.219H25.4643M75 12.3943L69.7857 17.6086M69.7857 17.6086L75 22.8229M75 22.8229L69.7857 28.0372M69.7857 28.0372L75 33.2515M75 33.2515L69.7857 38.4658M69.7857 38.4658L75 43.68M75 43.68L69.7857 48.8943M69.7857 48.8943L75 54.1086M75 54.1086L69.7857 59.3229M69.7857 59.3229L75 64.5372M75 64.5372L69.3182 70.219M69.3182 70.219H75V74.1387H51.5357M69.3182 70.219H51.5357M25.4643 74.1387H38.5H51.5357M25.4643 74.1387V70.219M25.4643 70.219H51.5357M51.5357 74.1387V70.219" stroke="#2D343C" stroke-width="2" stroke-linecap="round"/>
<path d="M20.4928 6.84375L20.4928 9.76375" stroke="#2D343C" stroke-width="2"/>
<path d="M57.4802 6.84375L57.4802 9.76375" stroke="#2D343C" stroke-width="2"/>
<path d="M20.4928 15.6046L20.4928 20.4712" stroke="#2D343C" stroke-width="2"/>
<path d="M57.4802 15.6046L57.4802 20.4712" stroke="#2D343C" stroke-width="2"/>
<path d="M20.4928 25.3365L20.4928 30.2032" stroke="#2D343C" stroke-width="2"/>
<path d="M57.4802 25.3365L57.4802 30.2032" stroke="#2D343C" stroke-width="2"/>
<path d="M20.4928 36.0433L20.4928 40.91" stroke="#2D343C" stroke-width="2"/>
<path d="M57.4802 36.0433L57.4802 40.91" stroke="#2D343C" stroke-width="2"/>
<path d="M20.4928 46.7502L20.4928 51.6168" stroke="#2D343C" stroke-width="2"/>
<path d="M57.4802 46.7502L57.4802 51.6168" stroke="#2D343C" stroke-width="2"/>
<path d="M20.4928 56.484L20.4928 61.3507" stroke="#2D343C" stroke-width="2"/>
<path d="M57.4802 56.484L57.4802 61.3507" stroke="#2D343C" stroke-width="2"/>
<path d="M20.4928 67.1909L20.4928 71.0842" stroke="#2D343C" stroke-width="2"/>
<path d="M57.4802 67.1909L57.4802 71.0842" stroke="#2D343C" stroke-width="2"/>
</svg>
