<svg width="50" height="50" viewBox="0 0 50 50" fill="none" xmlns="http://www.w3.org/2000/svg">
<path d="M23.3435 18.8728V24.8634H25.7692C26.831 24.8634 27.636 24.5997 28.1845 24.0724C28.7329 23.538 29.0071 22.7997 29.0071 21.8575C29.0071 20.9224 28.7329 20.1911 28.1845 19.6638C27.6431 19.1364 26.838 18.8728 25.7692 18.8728H23.3435ZM27.7204 29.9786H23.3435V32.4044H21.445V29.9786H19.3357V28.5443H21.445V26.5087H19.3357V24.8634H21.445V17.1853H26.265C27.6712 17.1853 28.8032 17.6247 29.661 18.5036C30.5259 19.3825 30.9583 20.5005 30.9583 21.8575C30.9583 23.2146 30.5259 24.329 29.661 25.2009C28.7962 26.0728 27.6571 26.5087 26.2439 26.5087H23.3435V28.5443H27.7204V29.9786Z" fill="#2D343C"/>
<path d="M21.7391 3.75194C23.4174 1.67581 26.5826 1.67581 28.2609 3.75194C29.8408 5.70636 32.4243 6.54578 34.8512 5.89325C37.4292 5.20008 39.99 7.06059 40.1274 9.72666C40.2568 12.2365 41.8535 14.4341 44.2004 15.3327C46.6936 16.2872 47.6717 19.2976 46.2158 21.5353C44.8452 23.6418 44.8452 26.3582 46.2158 28.4647C47.6717 30.7024 46.6936 33.7128 44.2004 34.6673C41.8535 35.5659 40.2568 37.7635 40.1274 40.2733C39.99 42.9394 37.4292 44.7999 34.8512 44.1068C32.4242 43.4542 29.8408 44.2936 28.2609 46.2481C26.5826 48.3242 23.4174 48.3242 21.7391 46.2481C20.1592 44.2936 17.5757 43.4542 15.1488 44.1068C12.5708 44.7999 10.01 42.9394 9.87258 40.2733C9.74321 37.7635 8.14654 35.5659 5.79956 34.6673C3.30644 33.7128 2.32832 30.7024 3.78422 28.4647C5.15477 26.3582 5.15478 23.6418 3.78422 21.5353C2.32831 19.2976 3.30644 16.2872 5.79956 15.3327C8.14654 14.4341 9.74321 12.2364 9.87258 9.72666C10.01 7.06059 12.5708 5.20008 15.1488 5.89325C17.5757 6.54578 20.1592 5.70636 21.7391 3.75194Z" stroke="#2D343C" stroke-width="2.16"/>
</svg>
