<svg width="77" height="78" viewBox="0 0 77 78" fill="none" xmlns="http://www.w3.org/2000/svg">
<path d="M71.7142 67.4847V64.9192C71.7142 64.4961 71.8395 64.0825 72.0741 63.7305C72.9223 62.4583 74.7919 62.4583 75.6401 63.7305C75.8747 64.0825 75.9999 64.4961 75.9999 64.9192V67.4847H71.7142Z" stroke="#2D343C" stroke-width="2"/>
<path d="M73.8555 10.6992V60.296" stroke="#2D343C" stroke-width="2" stroke-dasharray="2 2"/>
<path d="M5.28571 7.79869H13.8571H67.4286M5.28571 7.79869V1.5918M5.28571 7.79869V6.41323H1V2.66323H5.28571V1.5918M5.28571 7.79869H8.5V69.3504M5.28571 1.5918H13.8571H70.6429M70.6429 1.5918V4.69525V7.79869M70.6429 1.5918V2.66323H74.9286V4.69525V6.41323H70.6429V7.79869M70.6429 7.79869H67.4286M67.4286 7.79869V69.3504M67.4286 69.3504V76.5918H8.5V69.3504M67.4286 69.3504H8.5" stroke="#2D343C" stroke-width="2"/>
</svg>
