<svg width="75" height="76" viewBox="0 0 75 76" fill="none" xmlns="http://www.w3.org/2000/svg">
<path d="M69.8281 65.2744V62.7773C69.8281 62.3656 69.95 61.963 70.1784 61.6204C71.004 60.382 72.8237 60.382 73.6492 61.6204C73.8776 61.963 73.9995 62.3656 73.9995 62.7773V65.2744H69.8281Z" stroke="#2D343C" stroke-width="2"/>
<path d="M71.9128 10.0035V58.2773" stroke="#2D343C" stroke-width="2" stroke-dasharray="2 2"/>
<path d="M5.17391 7.33962H12.4783H65.6957M5.17391 7.33962V1M5.17391 7.33962V5.92453H1V2.09434H5.17391V1M5.17391 7.33962H8.30435V22.3585L7.58375 29.7072C7.41077 31.4713 8.79686 33 10.5694 33H63.4306C65.2031 33 66.5892 31.4713 66.4162 29.7072L65.6957 22.3585V7.33962M5.17391 1H12.4783H68.8261M68.8261 1V4.16981V7.33962M68.8261 1V2.09434H73V4.16981V5.92453H68.8261V7.33962M68.8261 7.33962H65.6957" stroke="#2D343C" stroke-width="2"/>
<path d="M8.03448 32L7.28083 40.7423C7.1298 42.4944 8.51122 44 10.2697 44H63.7302C65.4888 44 66.8702 42.4944 66.7192 40.7423L65.9655 32" stroke="#2D343C" stroke-width="2"/>
<path d="M8.03448 43L7.34228 49.6913C7.15923 51.4608 8.5474 53 10.3264 53H63.6736C65.4526 53 66.8408 51.4608 66.6577 49.6913L65.9655 43" stroke="#2D343C" stroke-width="2"/>
<path d="M8.03448 52L7.30855 59.7191C7.14303 61.4791 8.52756 63 10.2954 63H63.7046C65.4724 63 66.857 61.4792 66.6914 59.7191L65.9655 52" stroke="#2D343C" stroke-width="2"/>
<path d="M8.03448 62L7.30855 69.7191C7.14303 71.4791 8.52756 73 10.2954 73H63.7046C65.4724 73 66.857 71.4792 66.6914 69.7191L65.9655 62" stroke="#2D343C" stroke-width="2"/>
</svg>
