<svg width="50" height="50" viewBox="0 0 50 50" fill="none" xmlns="http://www.w3.org/2000/svg">
<path d="M41.3427 6.02148C39.8183 6.02148 38.5781 7.26173 38.5781 8.7861C38.5781 10.3105 39.8184 11.5507 41.3427 11.5507C42.8671 11.5507 44.1074 10.3105 44.1074 8.7861C44.1074 7.26173 42.8671 6.02148 41.3427 6.02148ZM41.3427 9.70767C40.8346 9.70767 40.4212 9.29425 40.4212 8.7861C40.4212 8.27795 40.8346 7.86453 41.3427 7.86453C41.8509 7.86453 42.2643 8.27795 42.2643 8.7861C42.2643 9.29425 41.8508 9.70767 41.3427 9.70767Z" fill="#2D343C"/>
<path d="M7.72946 26.9072C6.205 26.9072 4.96484 28.1475 4.96484 29.6718C4.96484 31.1962 6.20509 32.4365 7.72946 32.4365C9.25392 32.4365 10.4941 31.1962 10.4941 29.6718C10.4941 28.1475 9.25392 26.9072 7.72946 26.9072ZM7.72946 30.5935C7.22131 30.5935 6.80789 30.1801 6.80789 29.6719C6.80789 29.1638 7.22131 28.7504 7.72946 28.7504C8.23762 28.7504 8.65103 29.1638 8.65103 29.6719C8.65103 30.1801 8.23762 30.5935 7.72946 30.5935Z" fill="#2D343C"/>
<path d="M26.1512 40.982C25.9798 40.8106 25.742 40.7129 25.4997 40.7129C25.2564 40.7129 25.0196 40.8106 24.8481 40.982C24.6767 41.1534 24.5781 41.3912 24.5781 41.6335C24.5781 41.8768 24.6767 42.1137 24.8481 42.286C25.0196 42.4574 25.2573 42.556 25.4997 42.556C25.7421 42.556 25.9798 42.4574 26.1512 42.286C26.3227 42.1137 26.4213 41.8768 26.4213 41.6335C26.4213 41.3912 26.3227 41.1534 26.1512 40.982Z" fill="#2D343C"/>
<path d="M47.46 14.6086C47.9054 14.1882 48.1843 13.5931 48.1843 12.9337V4.63977C48.1843 3.36939 47.1507 2.33594 45.8804 2.33594H3.30485C2.03447 2.33594 1.00102 3.36948 1.00102 4.63977V12.9337C1.00102 14.2041 2.03456 15.2375 3.30485 15.2375H20.6949L2.15298 25.9429C1.62004 26.2506 1.23879 26.7473 1.07954 27.3418C0.920199 27.9362 1.00194 28.5572 1.30965 29.0901L5.45662 36.2728C5.79982 36.8673 6.36981 37.2505 6.99482 37.3774C7.00071 37.3791 7.00624 37.3815 7.01223 37.383L22.3304 41.4875C22.4103 41.5089 22.4905 41.5191 22.5695 41.5191C22.9764 41.5191 23.3488 41.2476 23.4591 40.8359C23.5909 40.3442 23.2991 39.8389 22.8075 39.7072L10.0408 36.2863L19.88 30.6055C19.8279 31.0522 20.1087 31.4814 20.5559 31.6013C20.6358 31.6227 20.7161 31.6329 20.795 31.6329C21.2019 31.6329 21.5743 31.3613 21.6846 30.9497L21.9691 29.8881L24.5669 30.5898L23.7118 33.7812C23.58 34.2728 23.8718 34.7781 24.3634 34.9099C24.4433 34.9313 24.5236 34.9415 24.6026 34.9415C25.0095 34.9415 25.3819 34.6699 25.4922 34.2583L26.3464 31.0705L28.9442 31.7722L28.6635 32.8197C28.5317 33.3113 28.8235 33.8167 29.3151 33.9485C29.395 33.9698 29.4753 33.9801 29.5543 33.9801C29.9612 33.9801 30.3336 33.7086 30.4439 33.2968L30.7237 32.2529L33.3215 32.9545L32.4707 36.1296C32.3389 36.6213 32.6307 37.1266 33.1223 37.2584C33.2022 37.2797 33.2825 37.29 33.3615 37.29C33.7683 37.29 34.1407 37.0184 34.2511 36.6067L35.1009 33.4352L37.6987 34.1369L37.4227 35.167C37.2909 35.6585 37.5827 36.1639 38.0744 36.2956C38.1543 36.317 38.2344 36.3272 38.3134 36.3272C38.7203 36.3272 39.0927 36.0556 39.203 35.6439L39.478 34.6175L42.058 35.3144L41.2119 38.4719C41.0802 38.9635 41.3719 39.4688 41.8636 39.6006C41.9435 39.622 42.0238 39.6322 42.1027 39.6322C42.5096 39.6322 42.882 39.3606 42.9923 38.949L43.8374 35.795L45.4739 36.237C45.7188 36.3032 45.8645 36.5562 45.7989 36.8011L43.6515 44.8151C43.6086 44.9755 43.4985 45.0593 43.4368 45.0949C43.3751 45.1306 43.2475 45.1839 43.0872 45.141L30.293 41.7129C29.8012 41.5811 29.296 41.8728 29.1643 42.3645C29.0325 42.8562 29.3243 43.3615 29.8159 43.4932L42.6099 46.9213C42.8088 46.9747 43.0087 47.0001 43.2056 47C44.2227 47 45.1561 46.3203 45.4314 45.2921L47.5788 37.2782C47.907 36.0535 47.1781 34.7884 45.9542 34.4578L23.6452 28.4319L47.2015 14.8316C47.3041 14.7723 47.3902 14.6958 47.46 14.6086ZM7.68221 35.5198C7.53836 35.6029 7.40141 35.5843 7.33257 35.5659C7.26373 35.5475 7.13582 35.495 7.05278 35.3512L2.90581 28.1685C2.77882 27.9484 2.85448 27.6661 3.07455 27.539L8.93177 24.1574L9.43937 25.0366C9.61004 25.3322 9.91978 25.4975 10.2383 25.4975C10.3946 25.4975 10.5531 25.4577 10.6982 25.3739C11.139 25.1194 11.2901 24.5558 11.0355 24.115L10.5279 23.2359L12.8583 21.8904L14.4718 24.6849C14.6425 24.9806 14.9522 25.1458 15.2707 25.1458C15.427 25.1458 15.5855 25.106 15.7306 25.0222C16.1714 24.7678 16.3225 24.2041 16.0679 23.7634L14.4545 20.9688L16.7848 19.6233L17.2924 20.5025C17.4631 20.7981 17.7728 20.9634 18.0913 20.9634C18.2476 20.9634 18.4061 20.9235 18.5513 20.8398C18.9921 20.5853 19.1431 20.0217 18.8886 19.5809L18.381 18.7017L20.7114 17.3562L22.3242 20.1496C22.4949 20.4452 22.8046 20.6105 23.1231 20.6105C23.2794 20.6105 23.4379 20.5707 23.5831 20.4869C24.0238 20.2325 24.1749 19.6688 23.9204 19.228L22.3076 16.4347L24.3811 15.2375H24.7237L25.1457 15.9684C25.3164 16.264 25.6261 16.4292 25.9446 16.4292C26.1009 16.4292 26.2594 16.3894 26.4045 16.3056C26.7838 16.0867 26.9477 15.639 26.8242 15.2375H29.9591L30.1781 15.6168C30.3488 15.9124 30.6585 16.0776 30.977 16.0776C31.1333 16.0776 31.2918 16.0378 31.437 15.9541C31.707 15.7981 31.8676 15.5261 31.8935 15.2375H42.8122L7.68221 35.5198ZM46.3413 12.9337C46.3413 13.1878 46.1346 13.3945 45.8805 13.3945H3.30494C3.05087 13.3945 2.84416 13.1878 2.84416 12.9337V4.63977C2.84416 4.38569 3.05087 4.17898 3.30494 4.17898H5.53505V7.40439C5.53505 7.91337 5.94764 8.32596 6.45662 8.32596C6.9656 8.32596 7.37819 7.91337 7.37819 7.40439V4.17898H10.0692V5.19271C10.0692 5.70169 10.4818 6.11428 10.9907 6.11428C11.4997 6.11428 11.9123 5.70169 11.9123 5.19271V4.17898H14.6032V7.40439C14.6032 7.91337 15.0158 8.32596 15.5248 8.32596C16.0337 8.32596 16.4463 7.91337 16.4463 7.40439V4.17898H19.1372V5.19271C19.1372 5.70169 19.5498 6.11428 20.0588 6.11428C20.5678 6.11428 20.9804 5.70169 20.9804 5.19271V4.17898H23.6713V7.403C23.6713 7.91199 24.0838 8.32457 24.5928 8.32457C25.1018 8.32457 25.5144 7.91199 25.5144 7.403V4.17898H28.2053V5.19271C28.2053 5.70169 28.6179 6.11428 29.1269 6.11428C29.6358 6.11428 30.0484 5.70169 30.0484 5.19271V4.17898H32.7393V7.40439C32.7393 7.91337 33.1519 8.32596 33.6609 8.32596C34.1699 8.32596 34.5825 7.91337 34.5825 7.40439V4.17898H37.2733V5.19271C37.2733 5.70169 37.6859 6.11428 38.1949 6.11428C38.7039 6.11428 39.1165 5.70169 39.1165 5.19271V4.17898H45.8806C46.1347 4.17898 46.3414 4.38569 46.3414 4.63977V12.9337H46.3413Z" fill="#2D343C"/>
<path d="M6.16296 10.2388C5.99155 10.0674 5.75379 9.96875 5.51141 9.96875C5.26904 9.96875 5.03128 10.0674 4.85986 10.2388C4.68845 10.4102 4.58984 10.6479 4.58984 10.8903C4.58984 11.1327 4.68845 11.3705 4.85986 11.5419C5.03128 11.7133 5.26904 11.8119 5.51141 11.8119C5.75379 11.8119 5.99155 11.7133 6.16296 11.5419C6.33438 11.3705 6.43298 11.1327 6.43298 10.8903C6.43298 10.6479 6.33438 10.4102 6.16296 10.2388Z" fill="#2D343C"/>
</svg>
