<svg width="75" height="75" viewBox="0 0 75 75" fill="none" xmlns="http://www.w3.org/2000/svg">
<path d="M38.5672 32.3942L43.0733 36.3643C43.2559 36.5252 43.491 36.614 43.7344 36.614H47.9201C48.3263 36.614 48.6921 36.8597 48.8458 37.2358L50.4127 41.0707C50.5757 41.4696 50.4648 41.928 50.1375 42.2084L46.8472 45.0268C46.6254 45.2168 46.4977 45.4943 46.4977 45.7863V51.4821C46.4977 51.8004 46.6493 52.0997 46.9059 52.2881L50.0001 54.5599C50.3953 54.8501 50.5219 55.3841 50.2988 55.8208L47.9045 60.5086C47.6937 60.9215 47.2266 61.1353 46.7763 61.025L43.9306 60.3286C43.5766 60.242 43.2034 60.3548 42.9568 60.6231L39.0644 64.8569C38.8076 65.1363 38.731 65.537 38.8668 65.8914L39.8886 68.5589C40.0738 69.0423 39.8594 69.5872 39.3944 69.8148L33.6221 72.6402C33.1943 72.8496 32.6783 72.7282 32.3886 72.3502L30.0458 69.2922C29.8566 69.0452 29.5632 68.9003 29.252 68.9003H23.4337C23.1226 68.9003 22.8291 69.0452 22.6399 69.2922L20.3125 72.3301C20.016 72.7171 19.4836 72.8339 19.0523 72.6065L13.6723 69.7706C13.2719 69.5595 13.0632 69.1059 13.1634 68.6646L13.9082 65.3837C13.9897 65.0245 13.8672 64.6497 13.5894 64.4079L9.6589 60.9877C9.4486 60.8047 9.17146 60.7178 8.89432 60.7479L5.37905 61.1303C4.9297 61.1791 4.50343 60.9205 4.33923 60.4994L2.28832 55.2394C2.11946 54.8064 2.27126 54.3141 2.65466 54.0513L5.22985 52.2863C5.5019 52.0999 5.66452 51.7913 5.66452 51.4615V45.28C5.66452 44.9844 5.53374 44.704 5.3073 44.514L2.5074 42.1646C2.19981 41.9065 2.07642 41.4894 2.19407 41.1055L3.35385 37.321C3.4826 36.9009 3.87053 36.614 4.30996 36.614H8.95135C9.19475 36.614 9.42979 36.5252 9.61242 36.3643L14.0634 32.4427C14.3665 32.1757 14.4792 31.7525 14.349 31.3701L13.2863 28.249C13.1202 27.7614 13.3518 27.2275 13.8212 27.0154L19.076 24.6411C19.4995 24.4498 19.999 24.5754 20.2816 24.9443L22.6399 28.0225C22.8291 28.2695 23.1226 28.4143 23.4337 28.4143H29.252C29.5632 28.4143 29.8566 28.2695 30.0458 28.0225L32.3886 24.9645C32.6783 24.5864 33.1943 24.4651 33.6221 24.6744L38.4579 27.0415C38.8744 27.2453 39.0961 27.7088 38.9935 28.161L38.2531 31.4226C38.1721 31.7795 38.2926 32.1523 38.5672 32.3942Z" stroke="#2D343C" stroke-width="2"/>
<circle cx="26.3428" cy="48.6573" r="11.1714" stroke="#2D343C" stroke-width="2"/>
<path d="M57.7882 9.08683L60.6665 10.0181C60.8981 10.093 61.149 10.0809 61.3723 9.98402L63.1607 9.20813C63.5334 9.04646 63.9668 9.12628 64.2574 9.41009L65.5293 10.6523C65.8376 10.9533 65.9184 11.4181 65.7297 11.8055L64.8642 13.5829C64.7363 13.8454 64.7297 14.1508 64.8459 14.4187L65.9801 17.0331C66.1068 17.3252 66.365 17.5394 66.6754 17.6101L68.2542 17.9698C68.7323 18.0787 69.0609 18.5183 69.0301 19.0077L68.8847 21.3171C68.8556 21.7798 68.5122 22.1618 68.0552 22.2399L66.9829 22.4232C66.6236 22.4847 66.3262 22.7367 66.2067 23.0811L65.296 25.7049C65.1716 26.0634 65.2608 26.4615 65.5264 26.7326L66.213 27.4334C66.5753 27.8032 66.5955 28.3884 66.2595 28.7823L64.3507 31.0198C64.0417 31.3821 63.5199 31.4762 63.1038 31.2446L61.6653 30.4443C61.3934 30.293 61.0666 30.2769 60.7811 30.4008L58.1104 31.5594C57.825 31.6833 57.6134 31.9329 57.5381 32.2348L57.1459 33.8075C57.028 34.2805 56.5861 34.5995 56.0999 34.5626L53.3124 34.351C52.8612 34.3167 52.4892 33.9837 52.4054 33.5389L52.1567 32.2181C52.0886 31.8562 51.827 31.561 51.476 31.4498L49.0522 30.6821C48.7865 30.5979 48.4976 30.6285 48.2554 30.7664L46.921 31.5263C46.5381 31.7444 46.0576 31.6861 45.7379 31.3828L44.036 29.7683C43.7168 29.4654 43.633 28.9895 43.8297 28.5959L44.515 27.2243C44.6471 26.9599 44.6554 26.6505 44.5378 26.3794L43.2732 23.4645C43.1556 23.1933 42.924 22.9881 42.6406 22.9039L41.1838 22.4711C40.7559 22.344 40.464 21.9485 40.4687 21.5021L40.4918 19.2877C40.4966 18.8256 40.8174 18.427 41.2677 18.3235L42.6698 18.0012C42.9691 17.9324 43.2202 17.7299 43.3508 17.4519L44.5597 14.8787C44.7315 14.5131 44.6664 14.0801 44.3948 13.7811L43.5773 12.8813C43.2309 12.5 43.2308 11.9181 43.577 11.5367L45.3086 9.62909C45.621 9.28502 46.1292 9.20145 46.5352 9.42738L47.9959 10.2401C48.2678 10.3913 48.5946 10.4074 48.8801 10.2836L51.5508 9.12492C51.8363 9.00108 52.0478 8.75142 52.1231 8.44951L52.5214 6.85233C52.6367 6.39024 53.0618 6.07353 53.5375 6.09536L55.9314 6.20522C56.3946 6.22647 56.7825 6.56341 56.8683 7.01912L57.1133 8.32043C57.1811 8.68017 57.44 8.97415 57.7882 9.08683Z" stroke="#2D343C" stroke-width="2"/>
<circle cx="54.8316" cy="20.3422" r="5.97223" transform="rotate(-23.4531 54.8316 20.3422)" stroke="#2D343C" stroke-width="2"/>
</svg>
