<svg width="77" height="78" viewBox="0 0 77 78" fill="none" xmlns="http://www.w3.org/2000/svg">
<path d="M68.3729 8.84986H76V1.5918H68.3729M68.3729 8.84986V1.5918M68.3729 8.84986H60.9047M68.3729 1.5918H8.62712M8.62712 8.84986H1V1.5918H8.62712M8.62712 8.84986V1.5918M8.62712 8.84986H9.73941M35.322 13.6886V76.5918M35.322 13.6886H38.9767M35.322 13.6886H31.6674M35.322 76.5918H28.0127M35.322 76.5918H42.6314M49.9407 76.5918V13.6886M49.9407 76.5918H42.6314M49.9407 76.5918H57.25M49.9407 13.6886H53.5953M49.9407 13.6886H46.286M20.7034 13.6886V76.5918M20.7034 13.6886H24.3581M20.7034 13.6886H17.0487M20.7034 76.5918H13.3941M20.7034 76.5918H28.0127M13.3941 76.5918H6.08475V69.9386M13.3941 76.5918V13.6886M13.3941 13.6886H17.0487M13.3941 13.6886H9.73941M28.0127 13.6886V76.5918M28.0127 13.6886H31.6674M28.0127 13.6886H24.3581M42.6314 76.5918V13.6886M42.6314 13.6886H46.286M42.6314 13.6886H38.9767M57.25 13.6886V69.9386M57.25 13.6886H60.9047M57.25 13.6886H53.5953M57.25 76.5918H64.5593V69.9386M57.25 76.5918V69.9386M57.25 69.9386H6.08475M57.25 69.9386H64.5593M6.08475 69.9386V13.6886H9.73941M60.9047 13.6886H64.5593V69.9386M60.9047 13.6886V8.84986M60.9047 8.84986H53.5953M53.5953 13.6886V8.84986M53.5953 8.84986H46.286M46.286 13.6886V8.84986M46.286 8.84986H38.9767M38.9767 13.6886V8.84986M38.9767 8.84986H31.6674M31.6674 13.6886V8.84986M31.6674 8.84986H24.3581M24.3581 13.6886V8.84986M24.3581 8.84986H17.0487M17.0487 13.6886V8.84986M17.0487 8.84986H9.73941M9.73941 13.6886V8.84986M69.5714 70.5434V68.2014C69.5714 67.7576 69.7092 67.3247 69.9659 66.9626V66.9626C70.8199 65.7573 72.6087 65.7573 73.4627 66.9626V66.9626C73.7193 67.3247 73.8571 67.7576 73.8571 68.2014V70.5434H69.5714Z" stroke="#2D343C" stroke-width="2"/>
<path d="M71.625 12.4795V62.0763" stroke="#2D343C" stroke-width="2" stroke-dasharray="2 2"/>
</svg>
