<svg width="77" height="77" viewBox="0 0 77 77" fill="none" xmlns="http://www.w3.org/2000/svg">
<path d="M71.7143 66.8929V64.3274C71.7143 63.9043 71.8395 63.4907 72.0742 63.1387C72.9224 61.8665 74.7919 61.8665 75.6401 63.1387C75.8748 63.4907 76 63.9043 76 64.3274V66.8929H71.7143Z" stroke="#2D343C" stroke-width="2"/>
<path d="M73.8555 10.1074V59.7042" stroke="#2D343C" stroke-width="2" stroke-dasharray="2 2"/>
<path d="M4.21429 7.2069H12.7857H67.4286H70.6429M4.21429 7.2069V1M4.21429 7.2069V5.82143H1V2.07143H4.21429V1M4.21429 7.2069H7.42857M4.21429 1H12.7857H70.6429M70.6429 1V4.10345V7.2069M70.6429 1V2.07143H74.9286V4.10345V5.82143H70.6429V7.2069M5.28571 76H70.6429V71.9729H5.28571V76Z" stroke="#2D343C" stroke-width="2"/>
<path d="M67.4286 67.4286H8.5V59.9286H67.4286V67.4286Z" stroke="#2D343C" stroke-width="2"/>
<path d="M67.4286 54.5714H8.5V47.0714H67.4286V54.5714Z" stroke="#2D343C" stroke-width="2"/>
<path d="M67.4286 42.7857H8.5V36.3572H67.4286V42.7857Z" stroke="#2D343C" stroke-width="2"/>
<path d="M67.4286 31H8.5V23.5H67.4286V31Z" stroke="#2D343C" stroke-width="2"/>
<path d="M67.4286 19.2142H8.5V11.7142H67.4286V19.2142Z" stroke="#2D343C" stroke-width="2"/>
</svg>
